<?xml version="1.0" standalone="no"?>
<!DOCTYPE svg PUBLIC "-//W3C//DTD SVG 20010904//EN"
 "http://www.w3.org/TR/2001/REC-SVG-20010904/DTD/svg10.dtd">
<svg version="1.0" xmlns="http://www.w3.org/2000/svg"
 width="300.000000pt" height="400.000000pt" viewBox="0 0 300.000000 400.000000"
 preserveAspectRatio="xMidYMid meet">
<metadata>
Created by potrace 1.10, written by Peter Selinger 2001-2011
</metadata>
<g transform="translate(0.000000,400.000000) scale(0.100000,-0.100000)"
fill="#000000" stroke="none">
<path d="M125 3948 c3 -29 8 -69 11 -88 4 -19 8 -51 10 -70 2 -19 9 -72 15
-117 6 -45 8 -86 5 -92 -3 -5 -2 -11 4 -13 10 -3 36 -196 27 -204 -3 -3 -15 0
-27 6 -16 8 -25 9 -29 2 -4 -6 -38 -13 -76 -15 -39 -1 64 -4 228 -5 200 -1
296 1 292 8 -4 6 -11 7 -17 4 -6 -4 -14 0 -19 7 -5 9 -9 9 -9 2 0 -6 -15 -11
-35 -10 -35 1 -35 1 -16 21 19 21 24 41 22 83 -1 23 -50 87 -51 66 0 -7 4 -13
8 -13 13 0 32 -47 32 -79 0 -17 -10 -38 -25 -54 -24 -24 -32 -25 -139 -26
l-114 -1 -11 63 c-6 34 -13 87 -15 118 -2 31 -6 61 -9 65 -3 5 -8 45 -12 89
-4 44 -13 111 -21 148 -8 38 -14 86 -14 107 0 21 -5 42 -10 45 -8 5 -9 -11 -5
-47z"/>
<path d="M410 3996 c0 -5 7 -17 16 -27 9 -10 18 -36 21 -58 5 -36 2 -44 -30
-76 -19 -19 -31 -35 -26 -35 4 0 22 13 39 30 40 39 43 105 5 147 -13 15 -25
24 -25 19z"/>
<path d="M510 3981 c-17 -32 -12 -91 11 -123 29 -40 33 -31 9 17 -24 47 -25
73 -4 103 8 12 11 22 5 22 -6 0 -15 -9 -21 -19z"/>
<path d="M875 3969 c-31 -28 -34 -29 -61 -29 -10 0 -14 -5 -10 -16 3 -8 2 -13
-3 -10 -9 6 -54 -57 -65 -92 -4 -12 -11 -22 -16 -22 -11 0 -19 -37 -10 -47 5
-4 2 -17 -6 -27 -14 -20 -14 -20 -14 0 -1 15 -4 13 -16 -9 -9 -16 -13 -39 -10
-52 3 -12 2 -25 -2 -29 -4 -4 -7 -11 -8 -14 0 -4 -6 -19 -12 -35 -17 -41 -24
-76 -27 -137 l-3 -55 15 45 c46 144 54 171 48 180 -3 6 4 10 17 11 22 0 22 1
3 8 -19 8 -19 8 3 15 12 4 29 21 38 38 l16 32 -43 -34 -44 -34 33 35 c17 19
32 41 32 48 0 10 3 11 14 2 11 -10 16 -8 21 8 3 12 3 26 -1 32 -3 6 8 24 25
39 17 16 31 36 31 44 0 9 5 16 10 16 6 0 16 11 22 25 6 14 17 25 24 25 7 0 22
12 34 28 12 15 29 30 38 34 11 4 6 6 -13 5 -16 -1 -43 -14 -60 -28z"/>
<path d="M968 3970 c-43 -38 -23 -39 22 0 19 16 29 29 23 30 -7 0 -27 -13 -45
-30z"/>
<path d="M1442 3971 l1 -30 19 24 c23 29 23 35 -1 35 -15 0 -19 -7 -19 -29z"/>
<path d="M1675 3982 c-2 -7 0 -10 5 -7 6 3 10 0 10 -7 1 -9 4 -8 13 3 7 9 19
18 27 22 8 3 0 5 -17 4 -18 -1 -35 -7 -38 -15z"/>
<path d="M1832 3995 c3 -3 41 -6 84 -7 65 -2 83 -6 99 -22 11 -12 33 -22 49
-23 20 -1 25 2 15 8 -8 5 -21 9 -30 9 -9 0 -22 7 -29 15 -17 20 1 20 41 -1 35
-18 54 -9 26 11 -13 9 -56 14 -140 14 -66 1 -118 -1 -115 -4z"/>
<path d="M2162 3951 c18 -27 55 -88 81 -135 32 -57 54 -86 65 -85 11 0 12 3 5
6 -7 2 -13 9 -13 14 0 6 8 5 20 -1 12 -7 20 -7 20 -1 0 5 -9 12 -19 16 -11 3
-31 29 -46 57 -14 28 -35 60 -46 71 -10 11 -19 24 -19 29 0 11 -61 78 -71 78
-5 0 5 -22 23 -49z"/>
<path d="M2646 3943 c-3 -32 -15 -142 -26 -245 -23 -211 -24 -240 -11 -219 5
8 12 48 16 90 5 42 9 85 11 96 6 38 33 290 33 313 2 47 -17 19 -23 -35z"/>
<path d="M1007 3953 c-42 -32 -50 -54 -9 -25 15 11 44 25 65 31 44 15 47 21 9
21 -16 0 -45 -12 -65 -27z"/>
<path d="M1207 3963 c5 -13 2 -15 -11 -10 -9 4 -32 -1 -49 -10 -18 -9 -37 -16
-44 -15 -6 1 -14 -2 -17 -7 -3 -5 -14 -8 -24 -6 -9 1 -11 0 -4 -2 30 -11 8
-20 -38 -15 -39 3 -51 1 -56 -11 -3 -9 -11 -14 -18 -11 -8 3 -18 -8 -26 -26
-7 -17 -17 -33 -23 -37 -6 -4 -7 -1 -2 8 5 8 4 11 -1 6 -5 -5 -9 -12 -9 -16 0
-4 -14 -25 -31 -46 -45 -58 -144 -284 -144 -330 0 -14 -4 -24 -9 -21 -13 8 0
-37 13 -47 8 -6 7 -10 -2 -14 -14 -5 -36 -45 -46 -83 -7 -24 -7 -24 9 -5 9 11
20 21 25 21 6 1 15 2 21 3 6 0 9 7 6 15 -3 7 3 26 14 42 21 32 25 49 9 39 -15
-9 -12 9 10 65 11 27 17 50 14 50 -4 0 -2 6 4 13 6 7 18 35 27 62 22 63 75
151 114 189 17 16 28 33 25 38 -3 4 5 12 18 17 13 4 23 12 23 17 0 5 5 8 12 8
6 -1 9 4 7 11 -3 8 10 11 46 11 27 -1 51 3 53 8 2 5 14 11 27 13 13 2 29 12
36 22 13 18 59 38 48 20 -8 -14 20 -10 42 6 18 14 18 14 -4 15 -13 0 -21 4
-18 9 3 5 -1 12 -10 15 -23 9 -24 8 -17 -11z"/>
<path d="M1 3909 c-1 -14 8 -35 20 -48 26 -28 37 -21 12 8 -10 12 -21 31 -25
44 -6 21 -6 21 -7 -4z"/>
<path d="M2079 3909 c13 -12 27 -35 33 -50 11 -31 26 -31 24 -1 -2 29 -38 72
-60 72 -19 0 -18 -1 3 -21z"/>
<path d="M2566 3868 c-3 -13 -6 -31 -6 -40 0 -63 -106 -228 -146 -228 -8 0
-14 -7 -14 -15 0 -42 102 56 136 130 23 50 50 162 41 171 -2 3 -7 -6 -11 -18z"/>
<path d="M2160 3862 c0 -4 6 -28 14 -53 8 -24 17 -55 20 -69 9 -38 19 -50 57
-60 31 -9 32 -8 15 5 -11 8 -23 15 -28 15 -12 0 -34 50 -48 108 -10 45 -30 80
-30 54z"/>
<path d="M199 3743 c23 -31 30 -83 17 -118 -8 -20 -7 -20 8 -1 9 11 16 31 16
46 0 30 -31 92 -50 98 -7 3 -3 -9 9 -25z"/>
<path d="M280 3726 c-9 -27 -8 -41 3 -68 15 -35 47 -69 47 -49 0 6 -4 11 -8
11 -25 0 -40 86 -22 121 7 11 7 19 1 19 -5 0 -15 -15 -21 -34z"/>
<path d="M2333 3664 c19 -41 47 -64 33 -28 -3 9 -9 26 -12 39 -3 13 -14 25
-24 28 -18 4 -17 2 3 -39z"/>
<path d="M2206 3628 c19 -33 26 -38 40 -27 12 10 11 14 -3 25 -23 17 -47 18
-37 2z"/>
<path d="M2310 3579 c0 -5 8 -9 18 -9 9 0 23 -9 29 -19 11 -17 10 -20 -7 -18
-10 1 -16 5 -14 9 3 4 -5 8 -17 8 -21 0 -21 -1 -6 -18 19 -21 22 -37 6 -26 -7
4 -10 1 -7 -7 3 -8 15 -16 29 -17 13 -2 30 -9 37 -14 21 -18 28 2 10 32 -9 15
-12 32 -7 37 4 4 5 14 0 21 -9 16 -71 34 -71 21z"/>
<path d="M97 3545 c-20 -19 -27 -35 -27 -63 0 -37 31 -102 50 -102 5 0 -2 16
-15 36 -34 51 -32 89 6 125 17 16 27 29 22 29 -4 0 -21 -11 -36 -25z"/>
<path d="M560 3519 c-15 -28 -7 -97 14 -118 14 -13 14 -10 -1 28 -14 35 -15
48 -5 74 14 37 8 48 -8 16z"/>
<path d="M0 3516 c0 -5 5 -26 12 -47 9 -30 8 -45 -1 -66 -11 -23 -10 -25 3
-13 20 16 20 76 1 110 -8 14 -14 21 -15 16z"/>
<path d="M2238 3461 c-4 -14 -2 -31 3 -38 6 -6 8 -17 5 -22 -11 -17 10 -21 30
-6 17 13 18 14 2 15 -10 0 -18 4 -18 9 0 13 109 18 122 6 7 -7 9 -5 6 5 -4 12
-20 14 -71 12 -61 -2 -66 -1 -69 20 -3 23 -3 23 -10 -1z"/>
<path d="M2427 3453 c-18 -17 -1 -22 75 -20 55 1 83 6 86 15 3 9 -17 12 -75
12 -44 0 -83 -3 -86 -7z"/>
<path d="M2610 3441 c0 -11 -3 -26 -6 -35 -5 -12 3 -11 35 7 51 27 53 47 6 47
-28 0 -35 -4 -35 -19z"/>
<path d="M2391 3418 c-10 -16 -10 -23 -2 -26 6 -2 11 -10 11 -17 0 -19 40 -85
51 -85 15 0 10 26 -7 40 -24 21 -38 52 -36 83 3 33 1 33 -17 5z"/>
<path d="M2816 3423 c-11 -38 -48 -335 -42 -340 3 -4 6 2 6 13 1 10 11 91 24
179 22 148 26 194 12 148z"/>
<path d="M2290 3392 c-21 -23 -21 -49 -3 -106 8 -26 13 -63 10 -81 -5 -28 -2
-34 16 -39 35 -9 67 -7 67 5 0 6 -6 9 -12 6 -18 -5 -37 23 -38 55 0 15 -4 30
-10 33 -5 3 -10 11 -10 16 0 6 5 7 11 3 8 -5 8 -1 0 14 -6 12 -16 24 -21 27
-17 11 -11 27 8 21 14 -5 13 -3 -3 10 -19 16 -19 16 8 12 21 -4 27 -2 25 11
-3 15 -17 31 -28 30 -3 0 -12 -7 -20 -17z"/>
<path d="M2673 3327 c-3 -70 11 -61 22 16 6 36 4 47 -6 47 -10 0 -15 -18 -16
-63z"/>
<path d="M2601 3354 c0 -16 3 -23 6 -16 2 6 9 9 14 6 6 -3 6 -11 -2 -20 -6 -7
-15 -11 -20 -8 -5 3 -9 -6 -9 -20 0 -20 5 -25 28 -24 26 1 27 3 27 49 0 27 -3
49 -7 49 -3 0 -13 3 -22 6 -12 5 -16 0 -15 -22z"/>
<path d="M250 3320 l-255 -6 277 -2 c176 -1 279 2 283 8 4 6 -5 9 -22 8 -15
-1 -143 -5 -283 -8z"/>
<path d="M2370 3310 c0 -18 20 -50 30 -50 18 0 10 39 -10 50 -14 8 -20 8 -20
0z"/>
<path d="M32 3283 c-24 -3 -32 -9 -32 -25 0 -20 4 -20 88 -14 48 3 180 6 295
7 198 0 207 1 207 20 0 18 -9 19 -262 17 -145 0 -278 -3 -296 -5z"/>
<path d="M2453 3273 c4 -3 23 -6 42 -5 22 1 33 -3 30 -9 -4 -5 -12 -9 -18 -8
-28 3 -48 -2 -42 -11 3 -6 30 -7 65 -3 42 4 60 2 60 -6 0 -18 44 -13 56 7 10
15 6 17 -45 17 -39 0 -55 4 -53 13 1 8 -14 12 -50 12 -28 0 -48 -3 -45 -7z"/>
<path d="M713 3221 c-12 -11 -24 -17 -28 -13 -4 4 -6 -2 -4 -13 3 -14 13 -21
38 -23 22 -2 31 0 26 7 -3 6 -10 9 -15 6 -14 -9 -5 30 10 42 8 7 10 13 4 13
-5 0 -20 -9 -31 -19z"/>
<path d="M2065 3230 c15 -7 8 -9 -30 -5 -28 2 -57 0 -65 -5 -11 -7 -12 -10 -2
-10 7 0 10 -5 7 -10 -4 -6 -10 -8 -15 -5 -5 3 -11 1 -15 -5 -3 -5 -18 -10 -33
-10 -26 1 -27 1 -7 17 18 14 18 15 2 9 -10 -3 -23 -6 -28 -6 -4 0 -6 -6 -3
-14 7 -19 -46 -72 -56 -55 -5 6 -15 9 -23 6 -9 -3 -18 -1 -21 6 -3 9 -5 9 -5
0 -1 -6 4 -15 9 -18 13 -8 13 -25 -1 -25 -5 0 -8 4 -5 9 8 12 -18 21 -45 16
-24 -5 -52 -25 -44 -33 2 -3 12 1 21 8 8 8 24 14 35 15 19 2 19 1 -1 -20 -29
-31 -25 -43 5 -15 14 13 25 19 25 13 0 -6 9 -9 20 -6 11 3 17 9 14 14 -3 5 1
6 9 3 8 -3 22 3 32 13 10 10 23 18 29 18 6 1 34 11 61 24 80 37 125 51 162 51
25 0 32 -4 27 -12 -4 -7 2 -5 13 5 14 12 23 15 28 8 3 -6 3 -11 -2 -11 -10 -1
39 -29 51 -30 15 0 -45 55 -63 57 -102 13 -106 13 -86 3z"/>
<path d="M225 3220 c-121 -3 -221 -7 -222 -8 -2 -1 -3 -9 -3 -17 0 -13 23 -15
170 -11 94 3 175 8 180 11 6 3 10 3 10 -2 0 -13 53 -8 78 7 21 14 31 32 15 28
-5 -1 -107 -5 -228 -8z"/>
<path d="M462 3205 l-27 -24 27 -1 c15 0 44 10 65 22 28 17 35 18 25 6 -8 -10
-11 -22 -8 -27 7 -11 -5 -20 -36 -26 -12 -3 -32 -15 -44 -27 -25 -26 -25 -25
16 -216 12 -57 19 -107 15 -110 -3 -4 -57 -9 -118 -13 -90 -5 -121 -11 -157
-30 -39 -20 -42 -24 -22 -27 19 -3 21 -6 11 -18 -6 -7 -15 -11 -20 -8 -5 3 -9
2 -8 -3 4 -20 -2 -32 -18 -36 -15 -4 -14 -6 5 -12 16 -5 21 -13 17 -26 -4 -12
-1 -19 7 -19 8 0 6 -5 -5 -11 -10 -6 -27 -9 -38 -6 -10 3 -19 0 -19 -5 0 -7
16 -9 40 -5 22 3 40 2 40 -1 0 -4 11 -8 24 -8 17 -1 23 2 19 12 -7 19 26 30
49 15 20 -13 58 -6 58 10 0 5 7 9 16 9 14 0 14 -3 4 -15 -7 -8 -8 -15 -2 -15
5 0 15 6 22 14 7 10 27 14 56 12 24 -1 44 1 44 6 0 4 12 8 26 8 20 0 25 -4 20
-16 -4 -10 -2 -14 6 -11 7 2 12 10 10 16 -4 20 25 12 42 -11 9 -13 14 -17 10
-9 -10 19 15 31 44 20 18 -7 31 -5 49 7 25 16 26 15 74 -40 27 -30 59 -58 71
-62 11 -3 41 -21 65 -40 63 -48 135 -67 237 -61 83 5 172 33 197 63 6 8 15 12
19 9 24 -15 100 160 100 230 0 40 26 70 67 79 45 10 69 -6 82 -57 14 -57 91
-160 134 -180 37 -18 62 -57 59 -93 -1 -14 4 -24 11 -24 15 0 11 56 -4 66 -16
10 -9 24 11 24 31 0 23 27 -10 33 -90 18 -189 193 -160 281 9 29 8 39 -6 60
-16 25 -15 27 7 46 23 19 23 19 3 20 -30 0 -56 -63 -45 -111 5 -20 11 -41 14
-46 4 -6 -3 -8 -17 -6 -22 5 -23 8 -15 36 5 18 9 33 9 34 0 1 -8 -1 -17 -4
-16 -6 -16 -5 -5 10 12 14 11 15 -12 4 -13 -6 -20 -15 -14 -18 5 -4 3 -9 -7
-13 -26 -10 -42 -7 -25 5 11 8 7 9 -17 4 -21 -4 -47 1 -82 15 -27 12 -56 20
-63 17 -8 -3 -5 -6 7 -7 21 -1 77 -29 59 -30 -6 0 -32 7 -58 16 -36 12 -44 19
-35 26 9 6 1 7 -24 3 -27 -4 -37 -3 -32 4 3 6 2 11 -4 11 -5 0 -11 -4 -13 -10
-1 -5 -13 -7 -25 -4 -13 4 -21 9 -19 13 5 7 -143 5 -335 -4 l-117 -5 -17 67
c-9 38 -21 76 -26 85 -12 24 -11 28 4 26 7 -2 13 10 15 30 3 28 0 32 -20 32
-22 -1 -22 -1 -4 -15 14 -11 16 -15 5 -15 -16 0 -49 -54 -48 -78 0 -11 2 -12
6 -4 2 6 12 12 21 12 12 0 13 -3 4 -12 -7 -7 -12 -21 -12 -32 0 -16 2 -18 9
-7 12 19 21 -1 14 -29 -6 -22 -7 -23 -14 -4 -6 16 -8 15 -8 -8 -1 -30 16 -37
38 -15 11 10 13 7 9 -15 -5 -30 10 -38 71 -38 19 0 31 -3 27 -7 -9 -10 -116
-11 -110 -2 2 4 -14 2 -37 -4 -22 -5 -37 -13 -32 -16 4 -3 9 -18 10 -34 1 -15
17 -46 36 -70 33 -42 87 -152 87 -178 -1 -18 -27 15 -45 55 -12 28 -49 48 -39
22 6 -16 -505 -31 -520 -16 -7 7 7 28 39 60 l49 50 113 0 c62 0 113 -2 113 -4
0 -3 -11 -17 -25 -32 -26 -28 -28 -45 -7 -52 6 -2 20 15 32 37 l20 41 70 0
c67 0 70 -1 85 -30 9 -16 18 -30 21 -30 2 0 0 9 -6 19 -14 27 -13 44 3 36 6
-4 1 2 -13 13 -13 11 -28 18 -32 16 -5 -3 -11 2 -14 10 -3 9 -15 16 -25 16
-19 0 -24 18 -21 84 1 38 -9 26 -18 -21 -7 -33 -8 -29 -10 32 -2 39 -3 76 -3
82 1 7 -3 10 -8 7 -12 -7 -11 3 2 28 10 18 9 20 -5 15 -13 -5 -15 -1 -12 18 3
14 0 25 -5 25 -6 0 -8 4 -5 9 3 5 14 7 25 4 13 -3 17 -11 13 -25 -3 -14 -1
-19 6 -14 6 3 12 1 15 -6 2 -7 2 -2 -1 12 -3 14 -4 33 -4 44 1 16 -4 18 -35
13 -20 -4 -40 -10 -45 -15 -4 -4 3 -57 16 -118 37 -163 42 -214 23 -214 -11 0
-18 13 -23 38 -3 20 -19 97 -35 171 -21 97 -26 138 -18 147 6 7 35 18 65 25
32 7 54 18 54 26 0 7 -5 13 -12 13 -6 0 -3 9 7 20 10 11 16 20 14 21 -2 1 -28
3 -57 4 -44 3 -57 0 -80 -20z m754 -307 c3 -4 28 -7 55 -6 38 2 53 -2 60 -14
5 -10 17 -14 29 -11 11 3 20 0 20 -6 0 -7 10 -25 21 -41 18 -23 22 -42 20 -97
-1 -83 -4 -116 -11 -123 -3 -3 -18 -24 -34 -48 -88 -129 -316 -148 -448 -37
-19 16 -37 23 -51 20 -33 -8 -61 38 -63 103 -1 34 -8 60 -19 72 -14 15 -16 31
-13 70 3 32 1 49 -5 47 -6 -2 -11 -11 -13 -21 -4 -29 -13 -31 -39 -6 -36 33
-30 64 13 68 21 2 34 -2 38 -12 5 -13 12 -12 52 6 26 11 76 26 112 33 70 14
268 17 276 3z m294 -81 c10 -3 7 -6 -8 -6 -13 -1 -21 -5 -17 -10 3 -5 -3 -16
-14 -23 -10 -7 -21 -25 -24 -38 -4 -21 -4 -20 -6 8 0 17 4 32 9 32 6 0 10 8
10 18 0 21 21 46 29 33 3 -4 13 -11 21 -14z"/>
<path d="M1050 2861 c-42 -23 -55 -35 -55 -53 0 -14 -7 -24 -18 -26 -9 -2 -17
-8 -17 -13 0 -14 15 -11 42 11 14 10 28 16 32 13 3 -3 6 0 6 8 0 8 14 23 30
33 17 9 28 21 25 26 -3 5 3 13 12 19 41 24 -6 9 -57 -18z"/>
<path d="M1217 2864 c-3 -4 -2 -14 2 -23 11 -19 -12 -56 -28 -46 -6 3 -11 1
-11 -4 0 -28 -33 -7 -50 32 -18 41 -19 41 -19 12 0 -34 19 -65 41 -65 31 0 77
22 83 39 6 21 -8 65 -18 55z"/>
<path d="M822 2837 c-10 -11 -11 -25 -4 -49 5 -18 7 -38 5 -45 -2 -6 5 -17 16
-23 26 -13 28 -40 4 -40 -16 -1 -17 -2 -2 -13 9 -7 26 -28 39 -47 12 -19 19
-26 16 -15 -3 11 -16 61 -30 110 -14 50 -26 101 -28 114 -3 22 -4 23 -16 8z"/>
<path d="M1170 2841 l25 -8 -25 -5 c-22 -4 -23 -5 -7 -13 21 -9 43 7 33 24 -4
6 -17 11 -29 10 -20 -1 -20 -2 3 -8z"/>
<path d="M1270 2825 c0 -10 10 -15 30 -15 32 0 40 14 14 24 -27 10 -44 7 -44
-9z"/>
<path d="M1241 2730 c-61 -38 -78 -42 -159 -44 -17 0 -30 -5 -29 -11 2 -5 28
-9 56 -9 56 2 164 49 197 85 26 29 5 22 -65 -21z"/>
<path d="M2415 3220 c-4 -6 -11 -7 -17 -4 -5 4 -4 -4 3 -17 7 -13 13 -30 14
-38 0 -8 6 -16 14 -19 8 -3 11 0 7 7 -4 6 -3 11 3 11 5 0 12 -6 15 -12 2 -7 3
-2 1 12 -2 14 -4 29 -4 34 -1 4 -8 5 -17 2 -12 -4 -14 -1 -9 14 7 21 1 27 -10
10z"/>
<path d="M2982 3080 c-7 -58 -28 -188 -46 -290 -18 -102 -33 -186 -32 -187 0
0 22 1 49 4 54 6 68 33 16 33 l-31 0 7 48 c4 26 18 103 31 171 19 93 24 149
22 225 l-3 101 -13 -105z"/>
<path d="M666 3125 c-4 -20 -5 -40 -2 -43 3 -3 6 0 6 6 0 6 7 18 16 27 15 15
15 18 2 32 -14 13 -16 11 -22 -22z"/>
<path d="M2340 3143 c-217 -25 -220 -26 -226 -49 -4 -17 -16 -24 -45 -29 -38
-7 -55 -25 -24 -25 9 0 28 -8 43 -17 24 -16 26 -16 14 -1 -21 27 12 58 62 58
23 0 47 7 58 17 21 19 37 10 19 -10 -9 -12 -6 -18 13 -31 33 -21 48 -78 42
-163 -5 -74 -24 -129 -62 -178 -13 -18 -24 -35 -24 -40 0 -4 -19 -24 -42 -45
-52 -46 -43 -66 10 -23 86 69 130 157 157 309 17 96 40 144 70 145 11 0 14 3
7 6 -7 3 -31 -2 -53 -11 -32 -13 -43 -14 -59 -4 -11 7 -18 19 -15 26 3 8 5 22
5 33 0 10 5 19 10 19 6 0 10 -8 10 -17 0 -37 15 -47 44 -28 24 16 35 49 19 57
-5 2 -19 3 -33 1z"/>
<path d="M2550 3111 c0 -21 5 -31 16 -31 11 0 14 8 12 27 -4 39 -28 42 -28 4z"/>
<path d="M2424 3104 c3 -25 16 -46 16 -26 0 7 5 12 11 12 5 0 7 -4 4 -10 -3
-5 3 -10 14 -10 17 0 18 3 8 29 -14 37 -57 42 -53 5z"/>
<path d="M2075 3100 c-4 -6 -10 -8 -15 -5 -5 3 -20 1 -35 -5 -17 -7 -24 -7
-20 0 7 11 -1 12 -32 4 -13 -4 -20 -10 -17 -16 3 -5 -6 -6 -22 -2 -18 5 -25 3
-21 -4 4 -5 -6 -15 -23 -21 -18 -6 -28 -6 -25 -1 7 12 3 12 -19 4 -9 -3 -14
-10 -11 -15 8 -11 -53 -42 -71 -35 -7 3 -34 -12 -58 -33 -31 -27 -41 -41 -31
-45 7 -2 19 2 25 9 17 21 144 84 166 83 11 0 46 10 79 22 33 12 82 30 109 40
27 9 45 20 38 23 -6 4 -13 3 -17 -3z"/>
<path d="M2712 2719 c-52 -351 -56 -387 -47 -378 9 10 108 693 103 717 -2 9
-27 -144 -56 -339z"/>
<path d="M984 3049 c-3 -5 4 -9 16 -9 12 0 19 -4 16 -8 -2 -4 -33 -7 -68 -6
-43 1 -55 0 -38 -6 14 -4 21 -9 15 -9 -5 -1 -21 -4 -34 -8 -19 -5 -22 -3 -16
8 8 12 6 12 -8 0 -16 -12 -24 -41 -12 -41 3 0 17 7 31 17 20 13 48 16 142 14
64 -1 128 -4 142 -7 14 -2 19 -1 13 2 -40 18 10 52 62 42 21 -4 23 -3 13 9
-12 14 -74 16 -93 2 -15 -11 -104 -17 -107 -8 -4 12 -67 18 -74 8z"/>
<path d="M2464 3044 c1 -9 10 -20 19 -26 18 -10 22 -1 11 26 -8 21 -33 21 -30
0z"/>
<path d="M1955 3020 c-17 -7 -15 -9 11 -9 18 -1 34 -7 37 -14 3 -9 16 -12 35
-9 16 2 33 -1 36 -7 4 -7 -1 -11 -13 -11 -14 0 -19 -5 -14 -16 3 -8 12 -13 19
-10 9 4 14 -2 15 -17 1 -17 2 -18 6 -4 2 9 12 17 21 18 14 0 13 2 -3 9 -12 5
-14 9 -6 9 26 2 -27 47 -68 60 -44 13 -49 13 -76 1z"/>
<path d="M2637 3023 c-4 -3 -7 -25 -6 -47 l1 -41 9 44 c9 45 8 56 -4 44z"/>
<path d="M1780 2965 c-66 -36 -114 -75 -93 -75 20 0 116 59 168 102 21 18 -14
6 -75 -27z"/>
<path d="M1890 2990 c0 -6 -4 -8 -10 -5 -5 3 -10 2 -10 -3 0 -6 -25 -26 -55
-47 -30 -20 -55 -38 -55 -41 0 -2 9 -4 19 -4 11 0 36 17 55 38 l36 37 0 -27
c0 -51 86 -68 115 -24 19 29 11 76 -13 76 -12 0 -13 -3 -4 -12 20 -20 14 -58
-10 -67 -27 -10 -67 -2 -70 13 -4 33 -2 42 11 52 10 8 11 13 3 18 -7 4 -12 2
-12 -4z"/>
<path d="M2255 2920 c4 -47 8 -87 11 -89 9 -10 3 145 -7 159 -7 11 -8 -10 -4
-70z"/>
<path d="M2436 2981 c-3 -5 4 -7 16 -4 19 4 20 3 8 -7 -12 -10 -10 -11 10 -6
14 3 28 6 33 6 4 0 7 4 7 8 0 11 -67 14 -74 3z"/>
<path d="M2370 2966 c0 -18 27 -39 40 -31 16 10 12 21 -15 33 -20 9 -25 9 -25
-2z"/>
<path d="M670 2955 c0 -25 15 -49 27 -44 6 2 2 18 -8 34 -16 25 -19 26 -19 10z"/>
<path d="M2460 2925 c0 -7 7 -16 16 -19 24 -9 36 -7 28 6 -5 8 0 9 14 6 12 -4
22 -2 22 3 0 5 -6 9 -12 10 -7 0 -25 2 -40 4 -18 2 -28 -1 -28 -10z"/>
<path d="M2377 2913 c-4 -3 -7 -22 -7 -41 0 -19 -6 -40 -14 -46 -8 -6 -17 -27
-21 -46 -4 -26 -3 -31 4 -20 6 8 11 25 11 37 0 13 8 24 20 28 11 3 20 11 20
16 0 6 6 7 13 3 8 -5 8 -3 -2 9 -7 9 -11 28 -9 42 5 24 -2 32 -15 18z"/>
<path d="M2441 2885 c-9 -39 -6 -75 5 -71 16 6 23 -12 15 -39 -4 -18 -6 -18
-12 5 -4 15 -7 -16 -8 -72 -1 -58 -5 -98 -11 -98 -5 0 -10 -7 -10 -15 0 -8 5
-15 11 -15 7 0 9 -9 6 -23 -4 -12 -2 -29 3 -37 7 -10 10 7 10 53 0 38 4 66 9
63 5 -3 9 4 8 17 0 12 3 36 7 52 6 23 5 27 -3 15 -9 -12 -10 -8 -5 15 4 17 11
38 16 49 7 13 6 21 -3 27 -8 5 -10 9 -5 9 6 0 3 6 -6 13 -9 6 -19 23 -21 37
-2 14 -5 21 -6 15z"/>
<path d="M2617 2853 c-3 -5 -7 -35 -10 -68 -8 -72 -1 -62 11 18 9 55 8 66 -1
50z"/>
<path d="M2369 2816 c-3 -3 -1 -40 2 -83 4 -43 8 -118 8 -168 1 -49 6 -97 11
-105 6 -10 9 48 7 169 -2 169 -8 207 -28 187z"/>
<path d="M37 2733 c24 -2 62 -2 85 0 24 2 5 4 -42 4 -47 0 -66 -2 -43 -4z"/>
<path d="M2320 2681 c0 -10 9 -21 20 -24 23 -6 24 -3 10 24 -14 24 -30 25 -30
0z"/>
<path d="M2656 2598 c-10 -51 -19 -111 -22 -133 -3 -22 -7 -51 -10 -65 -4 -17
-2 -22 5 -15 5 6 12 28 15 50 18 135 27 194 32 223 3 17 4 32 1 32 -2 0 -12
-42 -21 -92z"/>
<path d="M2317 2612 c-2 -20 -1 -44 4 -52 7 -13 8 -12 9 3 0 10 8 17 20 17 11
0 20 5 20 10 0 6 -5 10 -11 10 -8 0 -9 4 0 13 8 11 5 16 -13 25 -23 10 -24 9
-29 -26z"/>
<path d="M2720 2580 c1 -45 -34 -270 -42 -270 -4 0 -10 5 -13 10 -3 6 -16 10
-28 10 -16 0 -18 -3 -9 -12 14 -14 16 -42 2 -33 -5 3 -10 1 -10 -4 0 -12 11
-14 34 -5 13 5 14 9 5 21 -11 12 -8 13 13 8 30 -8 30 -10 54 158 12 88 14 121
5 130 -8 8 -11 5 -11 -13z"/>
<path d="M2055 2570 c-54 -19 -167 -32 -159 -18 3 4 1 8 -4 8 -6 0 -13 -7 -16
-16 -6 -15 3 -16 81 -12 87 5 163 27 163 47 0 13 -2 13 -65 -9z"/>
<path d="M339 2571 c8 -5 21 -6 30 -3 14 5 14 4 1 -13 -14 -17 -14 -18 8 -6
30 16 19 31 -21 31 -23 0 -28 -3 -18 -9z"/>
<path d="M113 2544 c-6 -13 -7 -24 -2 -24 5 0 8 -10 6 -22 -2 -13 -2 -17 0
-10 3 8 17 10 46 6 23 -4 44 -8 46 -10 2 -2 -4 -15 -13 -28 -20 -31 -21 -42
-1 -26 12 10 15 10 15 0 0 -9 3 -10 14 -1 10 9 16 8 26 -4 14 -16 30 -20 30
-7 0 12 -50 33 -61 27 -16 -10 -10 17 8 37 16 18 16 18 -3 12 -17 -7 -18 -6
-4 11 14 17 14 18 -6 7 -24 -12 -64 -12 -64 1 0 4 -4 6 -9 2 -5 -3 -13 0 -17
6 -3 6 -2 14 4 18 6 4 8 12 4 18 -5 7 -11 3 -19 -13z"/>
<path d="M2510 2553 c0 -5 6 -18 14 -29 17 -22 35 -11 20 13 -12 19 -34 29
-34 16z"/>
<path d="M2900 2549 c0 -8 13 -10 37 -6 21 4 42 2 50 -5 10 -8 13 -6 13 6 0
13 -11 16 -50 16 -31 0 -50 -4 -50 -11z"/>
<path d="M2306 2503 c-3 -21 -6 -51 -6 -67 0 -61 -58 -225 -102 -288 -21 -30
-18 -34 37 -42 33 -5 37 -4 25 7 -18 14 -13 109 8 142 11 18 12 17 6 -9 -5
-21 -4 -27 5 -22 15 10 14 -7 -1 -23 -11 -10 -10 -12 2 -9 10 2 16 -7 18 -29
2 -17 10 -34 18 -37 15 -6 12 18 -7 70 -4 12 -5 25 -2 28 4 3 2 6 -4 6 -15 0
-12 118 4 124 8 4 13 23 13 56 0 32 4 49 10 45 6 -3 11 5 12 19 0 14 1 32 2
39 1 6 6 15 11 19 6 4 -2 8 -16 8 -23 0 -27 -5 -33 -37z"/>
<path d="M2422 2473 c0 -29 4 -53 9 -53 18 0 20 25 5 65 l-14 40 0 -52z"/>
<path d="M2516 2482 c4 -15 14 -37 22 -49 9 -15 10 -23 3 -23 -17 0 -13 -24 7
-36 15 -10 17 -6 19 43 1 45 -1 52 -13 42 -11 -9 -14 -7 -14 14 0 14 -7 27
-15 31 -12 4 -14 0 -9 -22z"/>
<path d="M512 2480 c-5 -14 -7 -27 -4 -30 2 -3 7 1 9 8 3 6 18 12 34 12 16 0
29 5 29 11 0 6 -9 8 -21 4 -13 -5 -25 -2 -30 6 -6 10 -10 7 -17 -11z"/>
<path d="M62 2471 c6 -10 18 -17 25 -14 7 3 13 0 13 -6 0 -12 -6 -15 -55 -26
-27 -6 -28 -8 -10 -15 11 -4 21 -3 23 1 6 14 32 10 49 -6 8 -8 20 -12 26 -8 7
4 3 10 -11 16 -24 11 -28 22 -11 33 7 4 0 14 -18 25 -36 24 -46 24 -31 0z"/>
<path d="M324 2480 c-12 -5 -25 -14 -29 -21 -6 -8 -3 -9 10 -2 10 6 26 8 35 6
10 -3 21 0 24 6 4 6 13 11 19 11 7 -1 1 -10 -12 -20 -18 -15 -19 -20 -7 -20 9
0 16 5 16 10 0 6 7 10 16 10 9 0 14 6 12 13 -5 15 -55 19 -84 7z"/>
<path d="M1350 2471 c-13 -24 -13 -51 0 -71 8 -12 10 -10 8 10 0 14 3 37 7 53
8 31 0 36 -15 8z"/>
<path d="M430 2464 c0 -8 6 -11 15 -8 8 4 15 2 15 -4 0 -5 7 -12 15 -16 8 -3
15 0 15 7 0 7 -13 18 -30 24 -24 9 -30 9 -30 -3z"/>
<path d="M2887 2463 c-17 -16 -4 -24 36 -22 23 1 50 -1 60 -5 12 -6 17 -4 17
7 0 8 -7 18 -16 21 -21 8 -89 8 -97 -1z"/>
<path d="M2487 2420 c7 -51 8 -54 21 -49 6 2 2 24 -9 49 l-18 45 6 -45z"/>
<path d="M387 2434 c-9 -9 12 -34 28 -34 7 0 18 7 25 15 14 17 3 20 -20 5 -11
-7 -17 -5 -20 6 -3 8 -9 12 -13 8z"/>
<path d="M1750 2420 c-42 -22 -120 -100 -100 -100 18 0 117 76 130 100 13 24
14 24 -30 0z"/>
<path d="M2438 2409 c-10 -6 -18 -19 -18 -29 0 -15 6 -19 25 -18 26 2 29 10
17 40 -5 13 -11 14 -24 7z"/>
<path d="M185 2401 c-6 -5 -19 -11 -30 -14 -18 -4 -17 -5 3 -6 13 0 33 4 44
10 18 9 20 9 15 -4 -4 -11 -2 -14 8 -11 8 3 11 12 8 20 -6 16 -34 19 -48 5z"/>
<path d="M883 2383 c-19 -4 -21 -7 -11 -23 6 -10 18 -16 26 -12 10 3 13 0 10
-9 -2 -7 4 -22 14 -33 10 -11 23 -36 28 -56 5 -19 16 -45 25 -57 15 -21 14
-23 -10 -39 -14 -9 -32 -14 -40 -10 -9 3 -13 2 -10 -4 3 -6 -1 -10 -10 -10 -9
0 -14 -4 -11 -9 3 -5 -9 -11 -26 -15 -21 -4 -34 -2 -40 6 -6 10 -8 10 -8 1 0
-7 -6 -13 -13 -13 -7 0 -20 -9 -30 -20 -20 -23 -42 -27 -33 -5 3 9 0 15 -9 15
-8 0 -15 5 -15 11 0 5 -4 7 -10 4 -5 -3 -10 -13 -10 -21 0 -8 5 -12 10 -9 6 3
10 1 10 -6 0 -7 -11 -10 -30 -7 -16 3 -30 0 -30 -5 0 -5 -16 -7 -35 -5 -27 3
-32 1 -23 -9 14 -17 -6 -18 -24 0 -52 47 -57 50 -73 37 -13 -11 -13 -15 -3
-21 10 -7 10 -9 -1 -9 -8 0 -23 8 -34 18 -15 12 -21 14 -24 5 -6 -18 -33 -16
-33 2 0 20 -20 19 -36 -2 -18 -24 -17 -31 4 -36 11 -3 8 -5 -9 -6 -14 0 -43
-12 -63 -26 -20 -13 -36 -22 -36 -18 0 3 -7 0 -15 -7 -8 -6 -18 -9 -24 -6 -5
3 -12 -1 -15 -10 -9 -23 -28 -6 -20 18 6 20 -9 38 -31 38 -5 0 -4 -4 4 -9 8
-6 11 -18 8 -32 -3 -13 -7 -28 -7 -34 -3 -25 -33 -43 -66 -40 -24 2 -34 -1
-34 -11 0 -8 5 -14 10 -14 19 0 10 -18 -11 -23 -12 -3 -18 -10 -15 -15 3 -6
-5 -17 -18 -26 -23 -15 -25 -14 -29 7 -2 12 -5 -2 -6 -32 l-1 -53 47 52 c59
65 169 143 240 170 30 11 69 28 86 37 35 18 36 18 118 29 41 5 63 2 85 -9 28
-14 34 -14 70 2 23 10 62 17 96 17 31 -1 54 2 52 6 -7 11 32 28 65 28 18 0 40
9 51 20 14 14 33 20 63 20 72 0 75 8 35 92 -19 40 -46 99 -59 130 -13 32 -28
57 -34 56 -5 0 -20 -3 -32 -5z"/>
<path d="M25 2371 c17 -3 29 -10 28 -14 -2 -4 -1 -7 2 -7 3 0 10 0 16 0 6 0 4
7 -5 15 -8 8 -27 14 -43 14 l-28 -1 30 -7z"/>
<path d="M753 2372 c-33 -3 -42 -15 -23 -27 6 -3 10 0 10 7 0 10 3 9 11 -2 8
-11 12 -12 16 -2 2 6 11 12 18 12 8 0 16 4 19 8 5 9 2 9 -51 4z"/>
<path d="M1396 2361 c15 -15 134 -56 134 -46 0 2 -20 16 -43 30 -41 24 -112
36 -91 16z"/>
<path d="M145 2349 c-4 -5 -17 -9 -28 -8 -37 2 -41 -1 -21 -16 23 -17 84 -21
67 -4 -6 6 -9 18 -6 25 6 16 -3 19 -12 3z"/>
<path d="M449 2353 c-1 -5 -1 -12 0 -17 1 -4 -3 -14 -9 -21 -6 -7 -8 -19 -4
-28 3 -9 -1 -17 -10 -20 -13 -4 -12 -5 1 -3 10 1 19 11 21 24 2 13 12 28 22
34 20 13 16 38 -6 38 -8 0 -15 -3 -15 -7z"/>
<path d="M545 2350 c3 -5 22 -10 41 -10 21 0 33 4 29 10 -3 6 -22 10 -41 10
-21 0 -33 -4 -29 -10z"/>
<path d="M2013 2312 c-20 -33 -40 -51 -64 -59 -19 -6 -52 -18 -74 -26 -22 -8
-68 -18 -103 -21 -67 -7 -106 -19 -116 -35 -4 -6 6 -6 29 0 20 6 44 8 53 6 31
-7 -122 -45 -203 -51 -85 -5 -77 6 13 19 28 4 52 11 52 16 0 15 -33 10 -96
-12 -36 -13 -77 -21 -104 -19 -89 6 -110 5 -110 -5 0 -5 21 -10 48 -10 31 0
67 -10 107 -30 33 -16 66 -30 73 -31 23 -4 12 6 -25 21 -20 8 -33 18 -30 21 3
4 52 10 109 14 75 6 120 16 166 35 35 15 74 28 86 29 12 1 39 14 61 29 22 15
45 27 52 27 23 0 63 23 63 36 0 7 14 29 30 47 31 36 36 47 21 47 -4 0 -21 -21
-38 -48z"/>
<path d="M180 2309 c-7 -22 -19 -44 -26 -50 -16 -13 -34 -4 -34 17 0 8 -4 14
-10 14 -17 0 -11 -26 11 -46 15 -14 24 -16 37 -7 13 7 21 7 30 -3 17 -18 32
-18 32 1 0 9 -6 12 -16 8 -12 -4 -15 -1 -13 12 5 24 21 28 43 12 15 -11 17
-17 7 -35 -10 -18 -9 -22 4 -22 8 0 15 -9 15 -20 0 -11 7 -20 15 -20 9 0 12 6
8 15 -3 9 3 25 12 35 10 11 15 23 10 28 -4 4 -10 1 -12 -5 -7 -21 -33 -15 -33
7 0 16 7 20 35 20 19 0 35 5 35 10 0 6 -17 10 -38 9 -21 -2 -45 1 -52 6 -8 5
-19 10 -25 10 -5 0 -11 5 -11 10 -1 6 2 9 7 8 15 -5 10 14 -5 20 -9 4 -18 -8
-26 -34z"/>
<path d="M290 2340 c-12 -7 -12 -12 -2 -22 9 -9 12 -9 12 2 0 11 3 11 12 2 14
-14 42 -16 33 -2 -11 18 -41 29 -55 20z"/>
<path d="M625 2326 c-3 -9 -7 -23 -10 -31 -7 -25 -45 -19 -45 7 0 17 -3 19
-12 10 -10 -10 -7 -17 10 -34 16 -17 25 -19 33 -11 9 9 18 8 35 -4 15 -9 24
-11 24 -4 0 6 -7 11 -15 11 -8 0 -15 7 -15 15 0 10 10 15 31 15 20 0 29 4 26
13 -2 6 -10 11 -17 9 -7 -1 -18 2 -26 9 -11 9 -15 8 -19 -5z"/>
<path d="M2430 2325 c0 -8 6 -12 13 -10 8 4 12 -5 13 -26 1 -16 11 -44 23 -60
13 -17 20 -37 17 -45 -3 -9 -1 -12 4 -9 6 3 10 1 10 -6 0 -7 2 -10 5 -7 9 8
-16 98 -27 98 -5 0 -7 4 -4 8 2 4 -2 22 -11 40 -16 33 -43 44 -43 17z"/>
<path d="M2545 2315 c3 -11 9 -32 12 -47 3 -16 10 -28 14 -28 5 0 7 -11 3 -25
-4 -18 -2 -25 8 -25 24 0 27 10 10 43 -20 39 -23 57 -11 57 5 0 9 5 9 11 0 6
-6 9 -12 6 -7 -2 -19 3 -26 12 -12 14 -13 14 -7 -4z"/>
<path d="M2858 2306 c-3 -16 0 -27 9 -30 9 -4 11 -14 7 -30 -5 -21 -3 -23 20
-19 29 6 34 18 11 27 -8 3 -12 12 -9 21 4 10 0 15 -10 15 -16 0 -23 19 -8 21
4 0 15 2 25 4 9 2 17 -1 17 -6 0 -5 9 -9 21 -9 41 0 12 25 -33 28 -42 3 -46 1
-50 -22z"/>
<path d="M32 2295 c-25 -26 -22 -45 8 -45 33 0 50 -12 50 -35 0 -14 7 -25 20
-28 11 -3 20 -1 20 4 0 5 -7 9 -16 9 -10 0 -14 6 -11 14 3 8 -1 20 -9 27 -10
8 -14 22 -10 40 3 19 0 29 -10 33 -20 8 -15 10 -42 -19z"/>
<path d="M369 2308 c-1 -7 -2 -20 -3 -28 0 -8 -12 -20 -26 -27 -25 -12 -24
-13 13 -13 30 0 37 -4 37 -19 0 -14 -9 -21 -31 -26 -37 -8 -32 -16 13 -20 18
-2 44 -5 58 -7 18 -2 25 2 28 17 4 17 2 18 -12 6 -24 -20 -49 -6 -42 23 4 16
1 26 -9 30 -17 6 -20 42 -5 51 12 7 4 25 -11 25 -5 0 -10 -6 -10 -12z"/>
<path d="M475 2310 c-10 -16 3 -28 36 -35 27 -6 30 -10 27 -36 -5 -35 0 -37
11 -7 10 27 -16 68 -38 60 -10 -4 -13 -1 -8 11 7 19 -17 24 -28 7z"/>
<path d="M2385 2293 c4 -10 11 -29 15 -43 4 -14 15 -38 24 -55 18 -34 20 -49
6 -40 -5 3 -10 2 -10 -4 0 -5 5 -13 10 -16 6 -3 10 -1 10 5 0 6 5 8 11 4 14
-8 6 18 -30 103 -14 35 -30 63 -35 63 -4 0 -5 -8 -1 -17z"/>
<path d="M2340 2281 c0 -12 -4 -20 -8 -17 -5 3 -9 -1 -9 -9 0 -8 8 -15 16 -15
11 0 16 8 16 25 -2 31 -15 46 -15 16z"/>
<path d="M2718 2293 c21 -8 13 -21 -10 -16 -13 3 -20 2 -16 -2 4 -4 24 -9 45
-11 29 -2 33 -1 18 6 -17 7 -16 9 10 10 89 4 96 20 9 19 -38 0 -63 -3 -56 -6z"/>
<path d="M2815 2270 c-4 -6 -10 -8 -15 -5 -5 3 -11 2 -14 -3 -2 -4 3 -13 13
-19 14 -9 20 -7 29 8 7 10 8 20 2 24 -5 3 -11 1 -15 -5z"/>
<path d="M456 2251 c-8 -13 18 -21 45 -14 22 6 22 7 3 14 -27 11 -42 11 -48 0z"/>
<path d="M6 2222 c-9 -15 21 -23 46 -12 16 6 18 9 6 9 -9 1 -23 4 -31 7 -8 3
-18 1 -21 -4z"/>
<path d="M2800 2209 c0 -5 7 -9 15 -9 8 0 15 -7 15 -15 0 -8 -4 -15 -10 -15
-5 0 -10 -4 -10 -10 0 -12 47 -13 54 -1 3 5 -1 12 -10 15 -9 4 -13 13 -10 23
4 14 0 18 -19 19 -14 1 -25 -2 -25 -7z"/>
<path d="M638 2173 c-9 -19 -20 -27 -33 -25 -16 3 -17 2 -6 -12 19 -23 25 -20
49 24 11 22 17 40 12 40 -5 0 -15 -12 -22 -27z"/>
<path d="M2727 2183 c-4 -3 1 -12 10 -18 13 -10 20 -10 30 1 7 7 13 15 13 18
0 8 -45 8 -53 -1z"/>
<path d="M2900 2179 c0 -5 10 -9 23 -9 12 0 33 -3 47 -7 14 -3 22 -2 18 2 -11
11 -88 24 -88 14z"/>
<path d="M125 2165 l-30 -14 38 -1 c26 0 37 4 37 15 0 18 -5 18 -45 0z"/>
<path d="M198 2153 c-11 -21 -20 -28 -41 -26 l-27 2 27 -25 c29 -27 45 -31 37
-9 -4 8 -1 15 5 15 6 0 11 6 11 14 0 8 9 21 20 29 11 8 17 17 13 20 -14 14
-32 6 -45 -20z"/>
<path d="M2610 2172 c22 -13 87 -24 75 -13 -6 5 -28 11 -50 15 -25 4 -34 3
-25 -2z"/>
<path d="M2720 2155 c0 -19 23 -35 52 -35 20 0 28 5 27 18 0 10 -3 12 -6 5 -5
-15 -54 -6 -65 11 -5 7 -8 7 -8 1z"/>
<path d="M263 2130 c-6 -23 -19 -26 -26 -7 -4 9 -6 9 -6 0 -2 -21 35 -35 49
-18 10 12 10 15 0 15 -7 0 -10 7 -6 15 3 8 3 15 0 15 -3 0 -8 -9 -11 -20z"/>
<path d="M356 2142 c-22 -21 10 -29 37 -9 16 11 15 12 -7 13 -14 1 -27 -1 -30
-4z"/>
<path d="M2510 2137 c0 -7 4 -17 9 -22 5 -6 14 -26 19 -45 8 -26 10 -29 11
-12 1 24 -24 92 -33 92 -4 0 -6 -6 -6 -13z"/>
<path d="M2875 2121 c19 -9 93 -15 84 -7 -2 2 -26 6 -54 10 -34 4 -43 3 -30
-3z"/>
<path d="M2596 2113 c-13 -13 -5 -41 12 -45 15 -4 18 -1 14 19 -5 25 -15 36
-26 26z"/>
<path d="M2688 2107 c-33 -13 -34 -18 -8 -35 17 -10 20 -10 20 3 0 8 4 15 9
15 5 0 11 7 15 15 6 17 2 17 -36 2z"/>
<path d="M1057 2099 c-24 -14 -72 -113 -86 -177 -6 -29 -11 -116 -11 -192 0
-77 -3 -140 -7 -140 -5 0 -18 8 -30 18 -16 12 -23 30 -26 67 l-3 50 -2 -58
c-2 -54 -3 -57 -18 -42 -9 8 -24 13 -34 10 -11 -4 -23 3 -34 20 -9 14 -23 25
-32 25 -8 0 -13 4 -9 9 3 5 1 12 -5 16 -5 3 -10 -2 -10 -13 0 -22 -46 -67 -77
-75 -19 -4 -23 -1 -23 19 0 28 -15 32 -29 7 -6 -12 -5 -20 6 -29 9 -6 13 -16
9 -22 -8 -14 -56 -16 -56 -3 0 8 -52 31 -71 31 -4 0 9 -16 30 -37 36 -35 38
-38 29 -77 -5 -22 -11 -42 -13 -45 -2 -2 -19 3 -37 12 -63 29 -143 31 -222 6
-39 -12 -78 -28 -87 -36 -8 -7 -19 -13 -23 -13 -3 0 -35 -18 -70 -40 -35 -22
-73 -40 -84 -40 -26 0 -37 -16 -16 -24 9 -4 40 7 73 26 185 104 219 118 297
118 61 0 143 -18 144 -32 0 -2 7 -21 14 -43 l15 -40 -1 40 c-1 25 11 65 29
105 28 62 32 66 77 78 35 9 52 20 64 42 9 16 20 30 23 30 3 0 56 -23 118 -51
62 -27 114 -49 116 -47 1 2 0 32 -4 68 -3 36 -3 121 0 190 7 130 25 198 71
263 l21 29 23 -29 c26 -31 33 -20 8 15 -17 25 -22 26 -47 11z"/>
<path d="M2170 2105 c0 -5 -2 -48 -3 -95 -2 -70 -11 -108 -46 -210 -51 -148
-169 -395 -211 -443 -39 -45 -51 -77 -60 -167 -10 -91 -114 -377 -168 -458
-51 -78 -163 -162 -198 -148 -22 9 -16 44 11 62 23 15 27 15 50 0 25 -17 26
-17 13 4 -11 19 -10 24 12 41 54 41 170 183 158 194 -2 2 -32 -34 -67 -81 -60
-80 -113 -129 -98 -90 4 9 3 16 -1 16 -4 0 -13 -14 -19 -31 -9 -22 -17 -30
-28 -26 -8 4 -15 2 -15 -4 0 -6 -4 -8 -9 -4 -5 3 -17 -2 -25 -11 -12 -11 -16
-12 -16 -2 0 10 -3 9 -10 -2 -5 -8 -10 -30 -10 -47 0 -31 -2 -33 -35 -33 -19
0 -35 -4 -35 -8 0 -11 -85 -35 -107 -30 -15 4 -14 7 9 18 25 12 26 14 11 36
-14 22 -14 26 1 48 8 14 24 55 35 93 10 37 24 79 29 93 l10 25 6 -25 c27 -108
24 -165 -9 -216 -19 -29 -13 -43 9 -25 26 22 39 81 33 155 -3 39 -8 80 -12 91
-6 18 -4 17 14 -4 28 -32 26 -20 -4 25 -27 40 -31 55 -13 51 6 -1 13 7 15 18
2 11 8 29 12 40 9 21 71 224 96 310 17 61 24 115 17 135 -5 14 -32 -67 -35
-107 -1 -11 -6 -19 -11 -15 -5 3 -7 -5 -4 -16 4 -12 2 -22 -4 -22 -6 0 -8 -6
-5 -14 3 -8 2 -16 -2 -18 -4 -2 -27 -66 -51 -143 -67 -216 -118 -357 -122
-343 -3 7 -5 -2 -5 -20 0 -22 -7 -38 -21 -48 -12 -8 -22 -22 -22 -30 0 -8 -7
-14 -15 -14 -8 0 -15 -2 -15 -5 0 -3 -43 -137 -95 -298 -52 -162 -95 -297 -95
-300 0 -4 6 -7 13 -7 14 0 114 282 109 306 -1 6 5 24 13 40 8 16 15 37 15 46
0 9 5 20 10 23 6 3 7 17 4 30 -3 13 -2 30 2 37 5 7 9 19 10 26 3 19 11 25 23
17 6 -3 8 -12 4 -18 -4 -6 -8 -18 -9 -27 -2 -8 -6 -34 -10 -56 -4 -27 -2 -44
5 -48 15 -10 14 -29 -2 -23 -14 5 -52 -67 -61 -115 -2 -14 -10 -36 -16 -48 -6
-11 -9 -29 -7 -38 3 -15 5 -14 11 3 16 43 31 66 34 56 10 -29 22 -6 21 37 -2
55 12 88 42 97 l21 7 -21 22 c-22 24 -28 46 -11 46 6 0 10 6 10 14 0 8 14 26
30 40 26 22 34 24 50 13 11 -6 20 -15 20 -19 0 -4 9 -12 20 -18 18 -9 17 -6
-5 26 -28 41 -21 64 21 64 12 0 35 4 49 10 23 9 29 6 52 -20 28 -33 72 -40 93
-15 15 18 7 19 -21 4 -30 -15 -59 -1 -75 37 -17 40 -17 47 -4 39 6 -3 10 -15
10 -26 0 -25 39 -40 77 -30 39 10 44 40 6 34 -23 -3 -22 -1 8 10 83 31 139 91
194 208 39 84 100 280 114 367 14 88 53 173 123 270 111 152 170 258 213 390
24 72 26 92 20 155 -3 39 -15 88 -25 107 -11 19 -19 31 -20 25z m25 -164 c-3
-5 -1 -12 4 -16 6 -3 7 -13 4 -21 -5 -14 -8 -12 -19 7 -13 25 -10 39 7 39 6 0
8 -4 4 -9z m-952 -1354 c-3 -15 -14 -32 -25 -38 -17 -9 -19 -8 -16 18 2 16 8
27 16 25 7 -1 15 5 19 13 8 24 12 14 6 -18z"/>
<path d="M2760 2086 c-7 -14 -17 -26 -22 -26 -5 0 -6 4 -3 10 4 6 -1 7 -11 3
-28 -11 7 -22 45 -14 35 7 56 31 28 31 -9 0 -17 5 -19 11 -2 6 -10 -1 -18 -15z"/>
<path d="M2848 2098 c10 -10 111 -25 102 -15 -3 3 -29 10 -58 15 -35 6 -50 6
-44 0z"/>
<path d="M2210 2076 c29 -29 230 -138 230 -125 0 12 -32 49 -43 49 -4 0 -5 -6
-2 -12 4 -7 0 -5 -8 5 -8 9 -19 17 -25 17 -16 0 -23 30 -8 36 8 3 17 12 20 19
4 10 -2 11 -26 4 -18 -5 -35 -14 -40 -21 -6 -9 -10 -6 -14 10 -5 18 -9 20 -16
10 -7 -11 -11 -10 -21 3 -6 9 -25 19 -42 23 l-30 7 25 -25z"/>
<path d="M277 2074 c-13 -13 -7 -34 8 -28 12 5 14 2 8 -12 -6 -17 -5 -17 10
-5 21 16 22 31 3 31 -8 0 -16 5 -18 11 -2 5 -7 7 -11 3z"/>
<path d="M2945 2050 c-3 -5 3 -18 15 -30 24 -24 31 -26 24 -5 -4 8 -1 15 5 15
6 0 11 7 11 15 0 17 -45 21 -55 5z"/>
<path d="M2670 2039 c0 -6 -7 -9 -15 -5 -8 3 -14 2 -14 -2 3 -19 -3 -22 -21
-12 -16 9 -22 8 -26 -5 -10 -25 14 -46 36 -33 10 7 17 15 14 19 -5 8 27 29 44
29 5 0 17 -11 26 -25 17 -25 17 -26 -10 -19 -18 5 -25 3 -20 -4 9 -15 -25 -32
-64 -32 -18 0 -29 -4 -25 -10 3 -5 19 -10 36 -10 30 0 65 -15 84 -36 16 -19
100 -27 112 -12 9 10 1 13 -36 15 -48 3 -115 25 -125 42 -7 11 31 26 55 22 22
-3 33 28 14 35 -18 7 -20 34 -3 34 21 0 3 9 -30 15 -20 3 -32 1 -32 -6z"/>
<path d="M2815 2032 c30 -13 100 -23 89 -12 -5 4 -31 11 -59 14 -32 4 -43 3
-30 -2z"/>
<path d="M1106 2008 c-15 -57 -18 -183 -6 -272 10 -78 16 -98 36 -115 27 -24
30 -36 10 -48 -26 -16 -49 -83 -27 -83 4 0 19 20 32 45 13 25 27 45 31 45 15
0 8 -28 -16 -63 l-25 -36 102 -40 c179 -69 211 -81 216 -76 2 3 -2 5 -10 5
-10 1 -9 3 4 11 9 5 17 17 17 24 0 8 6 15 14 15 8 0 17 4 20 9 9 15 -56 2 -68
-14 -9 -12 -19 -13 -56 -3 -25 6 -54 17 -65 25 -11 7 -27 13 -36 13 -9 0 -28
11 -43 25 -22 20 -26 31 -21 57 5 29 2 36 -25 53 -16 11 -30 23 -30 28 0 13
17 7 35 -13 10 -11 23 -20 28 -20 6 0 3 8 -6 18 -18 20 -47 85 -52 117 -6 33
-25 227 -28 269 -2 44 -21 59 -31 24z"/>
<path d="M818 1977 c-82 -120 -102 -154 -100 -171 2 -28 -16 -56 -36 -57 -14
0 -13 -2 3 -8 30 -13 58 6 52 35 -2 13 -1 24 3 24 5 0 13 15 19 33 7 17 23 49
37 70 43 65 64 107 54 107 -5 0 -20 -15 -32 -33z"/>
<path d="M2785 2002 c14 -14 105 -27 105 -15 0 5 -6 10 -12 10 -7 0 -33 3 -58
8 -31 5 -42 4 -35 -3z"/>
<path d="M0 1968 c0 -10 7 -18 15 -18 21 0 30 -27 15 -45 -10 -12 -10 -15 0
-15 7 0 10 -7 6 -16 -3 -8 -2 -13 3 -10 4 3 11 22 14 43 6 38 -7 68 -25 57 -6
-4 -14 0 -19 7 -7 11 -9 10 -9 -3z"/>
<path d="M2769 1975 c-1 -3 -2 -10 -3 -16 0 -7 -9 -15 -18 -18 -11 -4 7 -12
47 -21 49 -12 61 -13 53 -3 -6 7 -19 13 -28 13 -10 0 -26 3 -35 6 -13 5 -14 8
-3 15 10 7 10 9 -2 10 -10 0 -8 3 5 9 17 7 17 9 3 9 -10 1 -19 -1 -19 -4z"/>
<path d="M2935 1970 c3 -6 -5 -10 -19 -10 -14 0 -27 -4 -31 -10 -7 -11 34 -55
43 -46 3 3 2 6 -2 6 -4 0 2 13 13 29 18 25 19 30 5 35 -8 3 -12 2 -9 -4z"/>
<path d="M395 1950 c-25 -27 -12 -37 14 -11 12 12 21 23 21 26 0 11 -18 4 -35
-15z"/>
<path d="M909 1923 c-6 -16 -13 -66 -14 -113 l-4 -85 9 84 c5 46 13 96 19 112
13 37 4 38 -10 2z"/>
<path d="M874 1918 c0 -13 -4 -41 -8 -63 -5 -30 -4 -36 4 -23 14 22 25 108 14
108 -5 0 -9 -10 -10 -22z"/>
<path d="M2472 1920 c23 -18 25 -23 16 -62 -5 -24 -10 -51 -11 -60 -1 -10 -4
-18 -8 -18 -6 0 -33 -47 -105 -179 -11 -21 -35 -61 -52 -90 -18 -28 -32 -56
-32 -61 0 -5 -33 -65 -73 -132 -85 -143 -107 -193 -107 -248 0 -22 -9 -66 -20
-97 -23 -65 -25 -87 -8 -77 7 4 8 3 4 -5 -4 -6 -11 -9 -15 -7 -4 3 -13 -24
-20 -60 -6 -37 -19 -78 -29 -93 -16 -25 -16 -25 1 -12 9 7 22 31 28 53 13 48
24 43 15 -7 -7 -37 -62 -109 -77 -100 -4 3 -13 -5 -19 -17 -11 -22 -10 -22 4
-4 13 16 16 17 16 4 0 -18 -24 -41 -33 -31 -4 3 -20 -22 -36 -57 -36 -76 -86
-140 -109 -140 -9 0 -42 -14 -72 -31 -49 -27 -61 -30 -107 -24 -29 4 -53 3
-53 -2 0 -4 25 -9 55 -11 43 -2 69 3 127 29 93 40 109 55 153 145 20 41 38 74
40 74 9 0 -42 -122 -69 -162 -26 -40 -41 -52 -96 -74 -58 -23 -199 -46 -280
-45 -20 1 -22 -1 -10 -9 8 -5 23 -7 33 -4 12 4 17 0 17 -13 1 -16 2 -16 13 -3
8 10 26 14 57 12 86 -7 97 -5 159 27 35 18 66 29 69 26 3 -3 1 -5 -5 -5 -6 0
-13 -7 -16 -14 -4 -10 -1 -13 8 -10 8 3 17 15 21 26 3 11 8 17 11 14 3 -3 20
18 38 47 17 28 37 51 44 49 7 -1 10 2 6 8 -3 6 18 52 47 102 29 51 55 97 57
103 2 5 11 18 20 29 9 10 15 20 14 22 -1 2 4 19 12 38 20 46 19 65 -1 40 -8
-10 -13 -14 -10 -7 3 6 9 34 12 63 3 29 16 72 30 97 28 54 28 53 10 53 -8 0
-18 5 -22 12 -4 7 -3 8 4 4 7 -4 12 -2 12 3 0 6 -4 11 -8 11 -12 0 2 86 16
103 7 8 9 17 5 20 -3 4 -2 7 4 7 5 0 19 19 32 43 30 58 44 81 56 89 7 5 7 8 0
8 -6 0 -6 3 1 8 9 6 88 144 85 150 -5 10 1 22 9 17 6 -3 10 0 10 9 0 16 75
153 96 173 7 7 16 23 20 36 3 12 16 35 26 50 11 16 17 31 14 34 -3 3 -1 12 6
20 19 23 14 104 -7 119 -30 22 -51 17 -23 -6z"/>
<path d="M2986 1915 c4 -8 -1 -17 -10 -21 -9 -3 -14 -10 -11 -14 11 -18 -47
-6 -60 13 -8 12 -17 18 -21 14 -3 -3 2 -14 11 -24 13 -12 14 -18 5 -21 -7 -3
-17 2 -22 9 -7 11 -8 9 -4 -5 5 -15 2 -18 -19 -14 -37 8 -50 -20 -22 -47 21
-19 23 -19 40 -2 10 10 15 22 12 27 -6 10 26 30 49 30 20 0 21 -39 1 -46 -8
-4 -12 -10 -9 -15 3 -6 0 -17 -8 -26 -12 -15 -11 -15 9 -5 12 7 30 12 41 12
11 0 22 6 25 14 4 9 0 12 -13 9 -10 -3 -21 1 -26 8 -5 9 -2 11 9 6 14 -5 15
-3 4 14 -8 13 -9 22 -2 27 13 9 35 49 35 62 0 5 -4 10 -10 10 -5 0 -7 -7 -4
-15z"/>
<path d="M2625 1897 c-6 -19 -8 -20 -12 -4 -4 16 -23 25 -23 10 0 -14 14 -28
41 -42 24 -12 29 -11 50 10 16 16 18 21 6 16 -11 -4 -25 1 -36 12 -19 19 -19
19 -26 -2z"/>
<path d="M2743 1857 c15 -6 26 -16 23 -23 -3 -7 3 -10 15 -7 32 9 31 20 -3 32
-40 14 -72 12 -35 -2z"/>
<path d="M818 1838 c-25 -39 -29 -58 -13 -58 9 0 15 9 15 23 0 13 5 28 12 35
6 6 9 14 6 17 -3 3 -12 -5 -20 -17z"/>
<path d="M2615 1820 c4 -6 12 -10 19 -10 6 0 28 -16 47 -36 44 -46 80 -65 135
-69 62 -5 82 -13 89 -36 7 -20 43 -45 52 -35 3 3 -2 8 -11 12 -9 3 -16 11 -16
18 0 26 -45 50 -95 52 -58 2 -105 22 -141 64 -25 27 -92 61 -79 40z"/>
<path d="M2695 1815 c20 -16 86 -37 93 -31 7 8 -43 34 -78 40 -33 5 -34 5 -15
-9z"/>
<path d="M612 1778 c-7 -7 -12 -17 -12 -24 0 -18 -49 -27 -67 -13 -11 10 -13
10 -11 0 2 -9 -18 -13 -67 -15 -38 -2 -79 -6 -89 -11 -14 -6 -17 -5 -12 3 4 7
3 12 -2 12 -6 0 -13 -7 -16 -16 -3 -9 -15 -14 -28 -13 -13 2 -29 0 -35 -4 -8
-5 -13 -3 -13 3 0 7 -7 5 -16 -4 -8 -9 -19 -14 -24 -11 -5 3 -11 1 -15 -5 -3
-5 -11 -10 -16 -10 -6 0 -7 5 -4 10 10 17 -1 13 -62 -18 -30 -16 -33 -15 -26
6 5 16 5 15 -8 -1 -8 -10 -21 -20 -29 -22 -42 -9 -60 -19 -60 -30 0 -10 15 -7
58 10 60 24 269 67 412 84 126 15 237 41 176 41 -13 0 -17 6 -13 20 6 23 -3
26 -21 8z"/>
<path d="M2830 1751 c0 -19 73 -30 84 -12 3 5 -4 11 -16 14 -12 4 -25 1 -29
-4 -5 -8 -9 -8 -13 0 -9 13 -26 15 -26 2z"/>
<path d="M740 1599 c0 -7 7 -17 14 -23 8 -6 24 -33 35 -61 11 -27 20 -41 20
-30 1 19 -54 125 -64 125 -3 0 -5 -5 -5 -11z"/>
<path d="M2981 1513 c-7 -17 -25 -42 -39 -56 -39 -35 -71 -75 -66 -80 3 -3
-11 -21 -30 -41 -20 -19 -36 -39 -36 -44 0 -4 -8 -17 -18 -28 -10 -11 -22 -33
-26 -49 -7 -29 -7 -29 8 -10 8 11 16 26 16 33 0 6 5 12 12 12 6 0 9 3 5 6 -3
3 7 17 24 31 16 14 29 29 29 34 0 11 21 37 75 92 47 49 68 87 63 113 -3 15 -6
12 -17 -13z"/>
<path d="M642 1488 c-18 -18 -14 -45 8 -51 11 -3 23 -1 26 4 4 6 11 6 18 0 7
-6 16 -8 19 -4 4 3 7 1 7 -5 0 -15 -13 -15 -28 0 -7 7 -12 8 -12 2 0 -11 42
-34 60 -34 6 0 10 8 10 18 0 13 -12 23 -39 32 -23 7 -38 18 -37 28 1 20 -17
25 -32 10z"/>
<path d="M1480 1472 c19 -9 38 -21 42 -27 5 -6 8 -6 8 2 0 6 -5 15 -10 18 -6
4 -8 9 -6 13 2 4 -12 8 -32 9 l-37 2 35 -17z"/>
<path d="M782 1441 c-18 -11 -5 -64 14 -57 11 4 12 1 4 -14 -15 -28 -12 -38 5
-16 10 14 18 16 27 9 7 -6 21 -9 31 -8 9 2 17 -1 17 -6 0 -5 4 -9 9 -9 5 0 7
9 4 21 -3 12 -11 18 -19 15 -8 -3 -14 -1 -14 4 0 5 -11 12 -24 16 -18 4 -23
11 -19 27 4 17 2 19 -5 8 -8 -12 -11 -11 -13 2 -3 11 -9 14 -17 8z"/>
<path d="M2981 1354 c-8 -27 -27 -76 -42 -110 -33 -72 -72 -185 -66 -190 2 -3
17 30 32 73 15 43 43 109 62 146 22 45 33 80 31 100 -3 28 -4 27 -17 -19z"/>
<path d="M922 1368 c-17 -17 -15 -48 3 -48 13 0 35 36 35 56 0 9 -27 3 -38 -8z"/>
<path d="M616 1345 c-14 -13 -26 -31 -26 -41 0 -22 28 -80 47 -95 8 -8 3 11
-13 44 l-28 57 23 24 c13 14 38 27 55 29 l31 4 -31 1 c-21 1 -40 -6 -58 -23z"/>
<path d="M973 1340 c-11 -31 -8 -40 14 -40 11 0 11 4 2 23 -11 20 -11 21 4 8
12 -9 17 -10 17 -2 0 7 5 9 12 5 7 -4 8 -3 4 5 -4 6 -11 9 -16 6 -5 -3 -13 1
-17 10 -7 12 -11 9 -20 -15z"/>
<path d="M462 1313 c-66 -11 -153 -52 -212 -99 -8 -7 -50 -31 -93 -53 -52 -27
-73 -43 -63 -47 9 -4 61 22 129 64 164 101 190 112 253 114 37 1 58 6 61 15 3
8 4 15 2 16 -2 2 -37 -3 -77 -10z"/>
<path d="M1283 1319 c-28 -10 -28 -17 -4 -43 10 -12 26 -45 36 -74 9 -29 19
-51 22 -48 9 8 -29 108 -47 126 -16 16 -16 19 -4 24 9 3 12 1 9 -4 -3 -6 -2
-10 4 -10 14 0 21 14 13 27 -4 6 -15 7 -29 2z"/>
<path d="M1012 1301 c2 -9 11 -17 20 -19 12 -2 15 2 11 16 -5 22 -35 25 -31 3z"/>
<path d="M1096 1294 c-6 -15 -4 -15 10 -3 16 13 17 11 10 -16 -5 -22 -4 -26 4
-15 8 13 10 12 10 -3 0 -10 12 -22 26 -27 35 -14 38 -13 23 8 -7 9 0 5 15 -10
29 -30 58 -40 36 -12 -11 12 -11 15 0 12 8 -2 16 6 18 17 4 17 2 18 -12 6 -13
-11 -22 -11 -45 -1 -17 6 -36 9 -43 4 -7 -4 -10 -4 -6 1 4 4 3 14 -3 22 -9 10
-8 13 0 13 7 0 9 5 6 10 -10 16 -42 12 -49 -6z"/>
<path d="M433 1174 c-3 -8 -4 -16 -2 -18 7 -6 49 13 49 22 0 14 -41 11 -47 -4z"/>
<path d="M539 1177 c-8 -7 -18 -20 -22 -30 -4 -10 -21 -24 -37 -30 -33 -13
-37 -24 -16 -52 13 -18 15 -15 40 33 14 29 30 52 35 52 9 0 24 30 19 36 -2 1
-10 -3 -19 -9z"/>
<path d="M630 1154 c0 -9 -16 -38 -35 -64 -25 -35 -32 -51 -23 -56 7 -4 18 2
27 17 32 48 68 82 80 75 8 -5 1 -22 -24 -57 -40 -56 -41 -59 -17 -58 9 0 31
21 47 46 30 48 55 66 55 41 0 -7 -12 -30 -26 -51 -14 -21 -23 -45 -20 -53 7
-19 31 -13 31 7 0 8 13 33 28 56 31 45 29 63 -8 63 -13 0 -27 5 -30 10 -3 6
-13 10 -21 10 -9 0 -22 7 -30 15 -20 20 -34 19 -34 -1z"/>
<path d="M2660 1160 c-12 -8 -12 -10 -1 -10 11 0 11 -4 -2 -18 -19 -21 -22
-42 -6 -42 6 0 9 7 5 15 -3 9 0 15 9 15 10 0 14 9 13 25 -1 14 -3 25 -3 25 0
0 -7 -5 -15 -10z"/>
<path d="M2967 1141 c-11 -19 -13 -31 -6 -33 11 -4 -11 -116 -33 -168 -10 -24
-69 -253 -65 -256 1 0 29 28 62 64 59 64 59 69 2 29 -16 -10 -31 -16 -34 -13
-9 8 27 46 44 46 7 0 25 7 38 16 21 14 25 24 25 68 -1 43 -2 48 -12 31 -14
-27 -60 -75 -70 -75 -11 0 1 49 19 79 19 29 46 158 39 177 -3 8 -2 14 3 14 5
0 11 11 13 25 7 33 -4 32 -25 -4z m7 -292 c-28 -32 -35 -22 -11 18 17 29 23
34 25 20 2 -10 -4 -27 -14 -38z"/>
<path d="M418 1099 c-10 -5 -18 -16 -18 -23 0 -8 -13 -24 -30 -37 -16 -13 -30
-29 -30 -36 0 -6 -24 -33 -54 -59 -54 -46 -68 -69 -81 -129 -6 -29 -6 -29 9
-10 15 18 15 17 2 -20 -7 -22 -29 -74 -49 -115 -62 -133 -97 -218 -97 -234 0
-9 -4 -16 -10 -16 -5 0 -10 -10 -10 -22 0 -13 -7 -32 -15 -42 -8 -11 -15 -31
-15 -45 1 -23 4 -20 25 19 13 25 24 54 25 64 0 10 6 24 14 30 8 6 58 108 111
226 164 362 162 358 209 372 53 15 54 16 27 34 -21 15 -21 17 -5 35 19 21 17
23 -8 8z"/>
<path d="M1301 1090 c-1 -3 -4 -23 -7 -45 -3 -32 -2 -36 7 -22 5 10 8 30 6 45
-2 15 -5 25 -6 22z"/>
<path d="M769 1029 c-10 -10 -19 -30 -19 -44 0 -20 5 -25 24 -25 26 0 56 33
56 61 0 25 -38 31 -61 8z m36 -19 c-2 -23 -20 -46 -28 -33 -6 11 10 53 21 53
5 0 8 -9 7 -20z"/>
<path d="M2557 1016 c4 -19 51 -55 57 -44 1 2 7 15 13 30 10 22 9 27 -4 32 -8
4 -21 2 -28 -4 -9 -8 -15 -8 -20 0 -11 19 -22 10 -18 -14z"/>
<path d="M2851 963 c-7 -43 -16 -105 -22 -139 -14 -91 -9 -130 6 -52 8 37 21
83 30 103 13 27 15 38 6 49 -8 9 -10 32 -5 65 11 81 -2 59 -15 -26z"/>
<path d="M833 980 c-24 -46 -7 -58 21 -15 9 14 21 25 27 25 7 0 5 -10 -5 -25
-21 -33 -20 -45 5 -45 11 0 17 4 14 10 -3 5 1 21 10 34 18 27 12 51 -11 42 -8
-3 -14 -1 -14 4 0 24 -27 6 -47 -30z"/>
<path d="M2423 985 c3 -24 15 -45 26 -45 14 0 8 25 -11 45 -18 19 -18 19 -15
0z"/>
<path d="M928 954 c-23 -45 -23 -54 3 -54 11 0 17 4 14 10 -4 6 1 22 10 36 15
23 13 44 -3 44 -4 0 -15 -16 -24 -36z"/>
<path d="M660 957 c0 -7 -9 -23 -20 -37 -25 -32 -25 -47 1 -55 35 -11 91 53
69 80 -15 18 -50 26 -50 12z m25 -51 c-10 -14 -24 -26 -32 -26 -13 0 -14 3 -1
23 8 12 18 28 22 35 6 9 12 10 18 4 6 -6 4 -19 -7 -36z"/>
<path d="M975 936 c-22 -34 -13 -56 22 -55 17 1 21 3 11 6 -22 5 -23 36 -3 53
12 10 15 10 15 -4 0 -9 5 -16 11 -16 20 0 4 35 -18 38 -14 2 -27 -5 -38 -22z"/>
<path d="M2248 914 c5 -41 13 -38 18 6 2 19 -1 30 -9 30 -9 0 -12 -11 -9 -36z"/>
<path d="M1064 932 c-18 -12 -36 -52 -30 -68 9 -22 26 -16 26 9 0 23 17 47 32
47 5 0 2 -13 -7 -30 -20 -39 -19 -50 5 -50 13 0 17 5 14 14 -3 8 2 26 11 40
17 25 16 26 -10 36 -31 12 -27 12 -41 2z"/>
<path d="M1280 923 c0 -12 -9 -43 -20 -69 -12 -26 -20 -59 -18 -73 2 -17 11 0
29 56 17 50 23 86 18 94 -6 10 -9 8 -9 -8z"/>
<path d="M2572 921 c-8 -5 -16 -25 -17 -45 -3 -29 -2 -34 9 -23 10 9 11 14 2
19 -7 5 -5 8 6 8 11 0 15 5 12 15 -4 8 -1 15 5 15 6 0 11 5 11 10 0 12 -10 13
-28 1z"/>
<path d="M2746 913 c4 -17 1 -23 -10 -23 -12 0 -14 -5 -6 -24 5 -13 6 -27 3
-30 -4 -3 -1 -6 5 -6 17 0 25 20 12 34 -8 11 -8 15 2 18 10 4 10 9 0 29 -11
22 -12 22 -6 2z"/>
<path d="M762 865 c-20 -36 -26 -55 -17 -55 7 0 18 13 25 29 6 16 20 37 31 47
18 16 17 34 -1 34 -5 0 -22 -25 -38 -55z"/>
<path d="M712 888 c-21 -21 -15 -48 11 -47 12 0 16 3 9 6 -10 4 -8 9 7 20 22
15 20 33 -3 33 -6 0 -17 -5 -24 -12z"/>
<path d="M790 850 c-14 -26 -4 -43 21 -37 12 3 19 0 19 -10 0 -8 7 -13 18 -11
10 2 17 12 16 25 0 12 3 20 8 17 4 -3 8 0 8 7 0 6 -8 9 -19 6 -12 -3 -22 1
-25 9 -8 21 -34 17 -46 -6z"/>
<path d="M892 816 c4 -17 1 -23 -9 -19 -7 3 -13 1 -13 -5 0 -5 7 -13 15 -16
17 -6 40 38 29 55 -11 18 -26 8 -22 -15z"/>
<path d="M932 808 c-21 -21 -15 -48 11 -47 20 0 21 1 3 8 -19 7 -19 8 3 14 13
3 21 11 19 18 -6 18 -22 21 -36 7z"/>
<path d="M2918 709 c-54 -57 -79 -92 -84 -115 -3 -19 -12 -34 -19 -34 -8 0
-14 -26 -19 -77 -4 -43 -9 -100 -12 -128 l-5 -50 18 40 c10 22 18 58 17 80 -1
22 3 51 8 65 5 14 11 40 14 58 6 50 24 77 98 152 38 38 66 74 64 80 -2 6 -38
-26 -80 -71z"/>
<path d="M2966 700 c-16 -17 -32 -30 -36 -30 -9 0 -32 -51 -26 -57 6 -6 96 90
96 105 0 16 -1 16 -34 -18z"/>
<path d="M73 672 c-36 -32 -41 -41 -36 -69 4 -22 -1 -43 -16 -66 -12 -19 -21
-45 -20 -58 0 -15 3 -19 6 -9 3 8 30 64 60 124 29 60 52 110 51 112 -2 1 -22
-14 -45 -34z"/>
<path d="M2810 668 c-1 -13 -3 -41 -6 -63 -4 -26 -2 -37 4 -30 12 13 22 115
11 115 -5 0 -9 -10 -9 -22z"/>
<path d="M2990 574 c0 -5 -12 -17 -28 -26 -35 -21 -86 -68 -80 -74 3 -2 18 7
34 21 16 13 43 36 59 49 17 13 27 28 23 32 -5 4 -8 3 -8 -2z"/>
<path d="M2985 509 c-90 -76 -152 -142 -170 -182 -13 -27 -25 -42 -27 -35 -3
7 -8 -11 -12 -40 -4 -29 -4 -56 -2 -61 3 -5 7 -29 7 -55 2 -48 5 -51 28 -37
11 7 11 15 3 39 -8 24 -7 33 4 43 8 6 14 8 14 4 0 -5 13 10 29 33 17 22 55 55
85 73 34 20 56 41 56 51 0 15 -3 16 -27 5 -64 -28 -173 -127 -173 -158 0 -9
-3 -10 -10 -3 -7 7 -1 32 21 80 25 53 51 87 111 146 44 43 78 84 76 91 -2 9
-7 11 -13 6z"/>
<path d="M323 493 c26 -7 20 -23 -13 -36 -33 -13 -39 -26 -12 -29 25 -2 35 -4
55 -13 10 -4 20 -5 23 -2 3 3 14 -2 25 -11 11 -9 23 -17 27 -18 4 0 15 -4 24
-8 22 -10 38 0 38 24 0 10 5 22 10 25 14 9 2 25 -18 25 -13 0 -14 -2 -3 -9 9
-6 10 -11 2 -15 -6 -4 -9 -11 -6 -16 3 -4 -3 -14 -12 -21 -12 -10 -14 -10 -9
-1 5 8 0 12 -15 12 l-22 0 23 25 c18 20 21 28 12 37 -9 9 -15 9 -24 -1 -10
-11 -10 -13 0 -7 19 11 14 -9 -7 -28 -11 -10 -21 -13 -25 -7 -4 5 -2 12 4 16
5 3 10 15 10 26 0 22 -29 26 -49 7 -11 -11 -12 -9 -6 10 6 19 3 22 -22 21 -17
-1 -21 -3 -10 -6z"/>
<path d="M2010 475 c-6 -15 -13 -32 -16 -36 -3 -5 1 -9 10 -9 8 0 17 13 21 31
9 40 -1 50 -15 14z"/>
<path d="M100 421 c0 -18 29 -31 169 -77 124 -41 142 -49 137 -65 -3 -11 -9
-27 -12 -38 -6 -21 34 -50 101 -71 22 -7 56 -20 75 -28 70 -30 130 -17 130 30
0 10 4 18 9 18 6 0 63 -18 128 -39 131 -44 205 -61 188 -42 -6 6 -80 35 -165
65 -310 107 -746 256 -753 256 -4 0 -7 -4 -7 -9z m366 -156 c-3 -8 -9 -22 -13
-32 -4 -11 -3 -14 5 -9 7 4 12 1 12 -7 0 -10 -7 -13 -20 -10 -11 3 -20 12 -20
20 0 13 -3 13 -15 3 -23 -19 -18 1 7 27 24 26 54 31 44 8z m60 -30 c9 -8 25
-15 36 -15 14 0 18 -5 14 -16 -4 -11 2 -10 24 6 32 23 36 20 19 -12 -7 -14 -7
-18 0 -14 11 7 61 -3 61 -13 0 -3 -4 -12 -9 -20 -7 -11 -21 -9 -77 10 -38 13
-72 24 -76 25 -5 1 -11 3 -15 4 -5 1 -11 2 -15 1 -11 -1 -10 17 2 40 13 23 17
23 36 4z"/>
<path d="M531 404 c-25 -31 -23 -48 5 -51 10 -2 13 0 7 3 -17 7 -16 29 0 43
10 8 17 7 26 -2 10 -10 12 -8 9 7 -5 30 -24 30 -47 0z"/>
<path d="M1396 419 c12 -21 57 -54 68 -51 5 2 21 -1 36 -7 15 -5 33 -5 40 -1
9 6 -1 12 -31 20 -24 6 -62 20 -83 32 -25 14 -36 16 -30 7z"/>
<path d="M656 344 c-29 -52 -30 -54 -18 -54 5 0 17 18 28 39 10 22 22 37 26
35 5 -3 8 -1 8 5 0 28 -21 16 -44 -25z"/>
<path d="M563 365 c-11 -31 34 -45 56 -17 12 15 12 14 7 -8 -7 -24 -6 -24 9
-5 13 17 14 20 0 28 -8 4 -20 5 -25 2 -6 -3 -10 -1 -10 4 0 17 -30 13 -37 -4z"/>
<path d="M1260 367 c17 -17 107 -29 116 -16 3 5 -16 9 -41 9 -26 0 -56 5 -68
11 -20 10 -20 10 -7 -4z"/>
<path d="M674 326 c-4 -10 -2 -22 5 -29 10 -10 15 -1 13 24 -1 3 6 6 13 6 10
0 13 -8 9 -26 -4 -22 -4 -23 6 -8 15 23 29 22 23 -3 -4 -14 0 -20 11 -20 10 0
15 4 12 9 -3 5 1 12 10 15 12 5 14 1 9 -17 -6 -22 -6 -22 11 -2 16 20 16 20 9
-2 -3 -13 -2 -23 3 -23 10 0 24 41 18 48 -3 2 -10 5 -18 6 -7 2 -26 8 -43 15
-56 23 -84 25 -91 7z"/>
<path d="M1236 309 c-19 -19 -17 -37 3 -24 14 8 34 45 24 44 -4 0 -17 -9 -27
-20z"/>
<path d="M837 283 c-13 -12 -7 -43 7 -43 8 0 22 -3 30 -6 12 -5 15 -2 10 10
-5 12 -2 15 11 10 13 -5 16 -3 13 7 -3 8 -13 13 -22 13 -9 -1 -16 2 -16 7 0
10 -24 12 -33 2z"/>
<path d="M0 234 l0 -37 21 28 c18 22 20 29 8 36 -24 15 -29 10 -29 -27z"/>
<path d="M1760 231 c-7 -11 -17 -18 -22 -15 -4 3 -8 1 -8 -3 0 -13 -81 -32
-117 -27 -18 2 -35 -1 -38 -6 -4 -6 -18 -7 -33 -3 -25 6 -26 5 -13 -11 9 -10
20 -14 30 -10 16 7 117 23 156 25 19 1 86 69 68 69 -5 0 -15 -9 -23 -19z"/>
<path d="M114 204 c7 -21 13 -29 18 -21 13 21 9 45 -10 49 -16 5 -17 2 -8 -28z"/>
<path d="M1465 154 c7 -48 35 -106 35 -73 0 9 -7 30 -16 48 -9 17 -13 38 -10
46 3 8 0 17 -6 21 -7 5 -9 -8 -3 -42z"/>
<path d="M2975 169 c-11 -4 -36 -8 -55 -9 -33 0 -91 -33 -80 -44 7 -6 142 24
154 34 15 14 2 28 -19 19z"/>
<path d="M1090 88 c-7 -24 -17 -47 -22 -53 -11 -13 -10 -35 2 -35 6 0 10 9 10
20 0 11 5 20 10 20 6 0 9 3 8 8 -1 4 2 22 6 40 12 49 1 49 -14 0z"/>
<path d="M2875 96 c-39 -11 -63 -46 -32 -46 16 0 127 49 127 56 0 8 -55 2 -95
-10z"/>
<path d="M2790 36 c0 -25 4 -36 15 -36 9 0 15 9 15 24 0 13 -7 29 -15 36 -13
11 -15 7 -15 -24z"/>
</g>
</svg>
