<?xml version="1.0" encoding="UTF-8"?>
<!-- Generated by Pixelmator Pro 3.6.7 -->
<svg width="500" height="500" viewBox="0 0 500 500" xmlns="http://www.w3.org/2000/svg">
    <clipPath id="clipPath1">
        <path d="M 100.630211 99.807304 L 399.020836 99.807304 L 399.020836 398.192711 L 100.630211 398.192711 Z M 100.630211 99.807304"/>
    </clipPath>
    <g id="Group" clip-path="url(#clipPath1)">
        <clipPath id="clipPath2">
            <path d="M 249.822929 99.807304 C 167.427078 99.807304 100.630211 166.604179 100.630211 248.999992 C 100.630211 331.395844 167.427078 398.192711 249.822929 398.192711 C 332.223961 398.192711 399.020836 331.395844 399.020836 248.999992 C 399.020836 166.604179 332.223961 99.807304 249.822929 99.807304 Z M 249.822929 99.807304"/>
        </clipPath>
        <g id="g1" clip-path="url(#clipPath2)">
            <path id="Path" fill="#c38d14" stroke="none" d="M 100.630211 99.807312 L 399.020844 99.807312 L 399.020844 398.192719 L 100.630211 398.192719 Z M 100.630211 99.807312"/>
        </g>
    </g>
    <clipPath id="clipPath3">
        <path d="M 111.161461 109.989586 L 388.838524 109.989586 L 388.838524 387.661461 L 111.161461 387.661461 Z M 111.161461 109.989586"/>
    </clipPath>
    <g id="g2" clip-path="url(#clipPath3)">
        <clipPath id="clipPath4">
            <path d="M 249.999992 109.989586 C 173.322922 109.989586 111.161461 172.145836 111.161461 248.822929 C 111.161461 325.5 173.322922 387.661461 249.999992 387.661461 C 326.677086 387.661461 388.838524 325.5 388.838524 248.822929 C 388.838524 172.145836 326.677086 109.989586 249.999992 109.989586 Z M 249.999992 109.989586"/>
        </clipPath>
        <g id="g3" clip-path="url(#clipPath4)">
            <path id="path1" fill="#f3f5f7" stroke="none" d="M 111.161461 109.989594 L 388.838531 109.989594 L 388.838531 387.661469 L 111.161461 387.661469 Z M 111.161461 109.989594"/>
        </g>
    </g>
    <clipPath id="clipPath5">
        <path d="M 111.161461 109.989586 L 388.833336 109.989586 L 388.833336 387.661461 L 111.161461 387.661461 Z M 111.161461 109.989586"/>
    </clipPath>
    <g id="g4" clip-path="url(#clipPath5)">
        <clipPath id="clipPath6">
            <path d="M 249.999992 109.989586 C 173.322922 109.989586 111.161461 172.145836 111.161461 248.822929 C 111.161461 325.5 173.322922 387.661461 249.999992 387.661461 C 326.677086 387.661461 388.833336 325.5 388.833336 248.822929 C 388.833336 172.145836 326.677086 109.989586 249.999992 109.989586 Z M 249.999992 109.989586"/>
        </clipPath>
        <g id="g5" clip-path="url(#clipPath6)">
            <path id="path2" fill="none" stroke="#303030" stroke-width="12" d="M 250 109.989594 C 173.322922 109.989594 111.161461 172.145844 111.161461 248.822937 C 111.161461 325.5 173.322922 387.661499 250 387.661499 C 326.677094 387.661499 388.833344 325.5 388.833344 248.822937 C 388.833344 172.145844 326.677094 109.989594 250 109.989594 Z M 250 109.989594"/>
        </g>
    </g>
    <path id="path3" fill="none" stroke="#f0dfc8" stroke-width="6.92533" d="M 157.041595 202.307281 C 152.848892 202.947906 149.223892 202.729156 146.156189 201.661438 C 143.109314 200.604156 140.677017 198.906219 138.859314 196.567688 C 137.031189 194.234344 135.880157 191.510406 135.406189 188.40625 C 135.041611 185.984375 135.166611 183.625 135.791611 181.328125 C 136.395767 179.015625 137.427032 177.036438 138.874939 175.385406 C 140.343689 173.71875 142.203064 172.713531 144.458267 172.369781 C 145.364517 172.234375 145.874939 172.526031 145.984314 173.255219 C 146.328064 175.515625 147.567642 177.21875 149.703064 178.364563 C 151.83847 179.5 154.30722 179.854156 157.114517 179.427063 C 159.124924 179.125 161.15097 178.265625 163.203049 176.859375 C 165.265549 175.453125 167.156174 173.442719 168.874924 170.822906 C 170.598892 168.1875 171.885345 164.9375 172.723877 161.072906 C 173.536377 157.40625 174.385345 153.697937 175.275955 149.947937 C 176.161377 146.192719 176.927002 143.119812 177.567627 140.729187 C 174.60408 140.552094 171.942627 140.973969 169.572845 141.989594 C 167.218674 143 165.421799 144.473969 164.18222 146.411469 C 162.953049 148.328125 162.541595 150.635437 162.953049 153.322937 C 163.156174 154.661469 163.656174 155.71875 164.458267 156.489594 C 165.260345 157.265625 166.15097 157.578125 167.135345 157.432312 C 167.697845 158.348969 167.90097 159.520844 167.734299 160.942719 C 167.58847 162.364594 167.072845 163.776031 166.192627 165.1875 C 165.328049 166.598969 164.119705 167.859375 162.572845 168.979156 C 161.036377 170.078125 159.171799 170.791656 156.973892 171.130219 C 154.473892 171.510406 152.286392 171.265625 150.406189 170.395844 C 148.541595 169.520844 147.041595 168.260406 145.911392 166.609375 C 144.791595 164.9375 144.072845 163.067719 143.755142 160.984375 C 143.156189 157.03125 143.385361 153.161469 144.453064 149.364594 C 145.52597 145.552094 147.36972 142.067719 149.973892 138.906281 C 152.578064 135.723969 155.83847 133.046906 159.765549 130.869812 C 163.703049 128.692719 168.229095 127.213562 173.343658 126.437531 C 179.671783 125.473969 183.83844 126.291687 185.843658 128.890656 C 187.864502 131.468781 188.359283 135.322937 187.328049 140.453125 C 187.031158 142.182312 186.661362 144.270844 186.22908 146.708344 C 185.79158 149.130219 185.312408 151.734375 184.79158 154.515625 C 184.29158 157.302094 183.786377 160.036469 183.281158 162.729156 C 182.796783 165.416656 182.369705 167.822906 182.01033 169.942719 C 180.171783 180.359375 177.239502 188.104156 173.208252 193.171844 C 169.187424 198.234344 163.796799 201.281219 157.041595 202.307281 Z M 206.484283 190.869781 C 202.828018 191.427063 199.703018 191.062469 197.10408 189.786438 C 194.520737 188.494781 192.46344 186.578125 190.921783 184.046875 C 189.380112 181.5 188.374908 178.598938 187.911362 175.338531 C 187.442627 172.083344 187.515549 168.739594 188.119705 165.322906 C 188.723862 161.901031 189.85408 158.682281 191.505127 155.661469 C 193.156158 152.630219 195.338455 150.072937 198.046768 147.989594 C 200.749893 145.890625 203.96344 144.557312 207.676987 143.994812 C 210.531143 143.557312 212.937393 143.739594 214.895737 144.536469 C 216.854065 145.317719 218.390518 146.526062 219.505096 148.166687 C 220.619675 149.807312 221.333221 151.630219 221.6353 153.635437 C 221.973846 155.833344 221.697815 158.119781 220.807175 160.484375 C 219.937393 162.854156 218.5103 164.927094 216.531143 166.697906 C 214.567612 168.458344 212.08844 169.5625 209.104065 170.020844 C 207.822815 170.213531 206.562393 170.3125 205.317612 170.322906 C 204.072815 170.3125 202.885315 170.083344 201.770737 169.630219 C 201.43219 169.5 201.08844 169.541656 200.739487 169.760406 C 200.406158 169.963531 200.286362 170.369781 200.380112 170.979156 C 200.61969 172.557281 201.729065 173.619781 203.71344 174.166656 C 205.697815 174.703125 207.99469 174.770813 210.609268 174.375 C 213.713425 173.901031 216.801987 172.625 219.874893 170.546875 C 222.9478 168.453125 225.275925 165.666656 226.859268 162.1875 C 227.239471 161.385406 227.83844 161.03125 228.656143 161.119781 C 229.489456 161.203125 230.208221 161.510406 230.807175 162.046875 C 231.41655 162.572906 231.593628 163.171875 231.328003 163.833344 C 228.432175 171.875 224.8853 178.192688 220.687393 182.78125 C 216.505096 187.369781 211.770737 190.067688 206.484283 190.869781 Z M 205.697815 163.536469 C 207.453018 163.270844 208.739487 162.494781 209.567596 161.213531 C 210.406158 159.932281 210.734283 158.713531 210.55719 157.552094 C 210.40094 156.526062 209.921768 155.703125 209.109283 155.083344 C 208.301971 154.447937 207.197815 154.234375 205.801987 154.447937 C 204.031143 154.713562 202.71344 155.479156 201.83844 156.734375 C 200.979065 157.989594 200.645737 159.229156 200.828018 160.447906 C 200.979065 161.411469 201.458237 162.229156 202.27594 162.895844 C 203.088455 163.546875 204.229065 163.760406 205.697815 163.536469 Z M 262.275909 156.802094 C 262.656097 156 263.239441 155.645844 264.031128 155.739594 C 264.833191 155.828125 265.536316 156.140625 266.130066 156.671875 C 266.744659 157.203125 266.947784 157.796875 266.744659 158.447906 C 266.411316 159.5625 265.911316 161.119781 265.244659 163.125 C 264.588409 165.125 263.708191 167.276031 262.604034 169.588531 C 261.494659 171.901031 260.057159 174.15625 258.296753 176.354156 C 256.546753 178.552063 254.442581 180.447906 251.979034 182.036438 C 249.515503 183.625 246.5728 184.682281 243.156128 185.203125 C 239.145721 185.8125 235.838425 185.447906 233.22905 184.109375 C 230.640503 182.755188 228.71344 180.838531 227.453003 178.354156 C 226.208221 175.854156 225.551971 173.151031 225.489471 170.239594 C 225.411346 167.317719 225.869675 164.635406 226.864471 162.1875 L 227.161346 161.572906 C 228.463425 159.140625 229.718628 156.510406 230.926971 153.682312 C 232.156143 150.848969 233.4478 148.161469 234.812378 145.614594 C 236.171753 143.0625 237.645706 140.911469 239.229034 139.151062 C 240.833221 137.385437 242.604034 136.354187 244.551956 136.057312 C 247.421738 135.625031 249.640488 135.968781 251.208206 137.098969 C 252.781128 138.229187 253.645706 139.526062 253.807159 140.989594 C 253.916534 141.71875 253.692581 142.375 253.124878 142.963562 C 252.562363 143.552094 251.864456 144.114594 251.036331 144.651062 C 250.218628 145.171875 249.515503 145.770844 248.937378 146.453125 C 248.354034 147.130219 248.135284 147.927094 248.270706 148.833344 C 248.354034 149.380219 248.947784 150.416687 250.046738 151.9375 C 251.156128 153.4375 252.348831 155.145844 253.624878 157.046875 C 254.916534 158.932281 255.890503 160.791656 256.546753 162.619781 C 257.937378 162.348969 259.057159 161.6875 259.916534 160.630219 C 260.786316 159.552094 261.572784 158.276031 262.275909 156.802094 Z M 237.020706 166.890625 C 239.025925 166.588531 240.47905 165.713531 241.385284 164.265625 C 242.291534 162.822906 242.598831 161.15625 242.312378 159.270844 C 242.145721 158.171875 241.801956 157.072906 241.286331 155.979156 C 240.770706 154.875 240.083221 153.760437 239.229034 152.645844 C 238.437378 151.520844 237.708221 151.630219 237.046753 152.979187 C 236.145721 154.864594 235.176956 156.776031 234.135284 158.713531 C 233.088425 160.635406 232.156128 162.338531 231.333221 163.833344 C 231.499878 164.932281 232.109253 165.776031 233.156128 166.359375 C 234.213409 166.942719 235.505081 167.119781 237.020706 166.890625 Z M 297.598785 151.432312 C 297.979004 150.630219 298.567566 150.276062 299.354004 150.364594 C 300.156067 150.458344 300.859222 150.770844 301.458191 151.302094 C 302.067566 151.833344 302.275879 152.421875 302.067566 153.078125 C 301.73941 154.192719 301.23941 155.75 300.567535 157.75 C 299.916504 159.75 299.036285 161.90625 297.92691 164.21875 C 296.817566 166.53125 295.385254 168.786469 293.619629 170.984375 C 291.869629 173.182281 289.765472 175.072906 287.301941 176.666656 C 284.838379 178.255188 281.895691 179.3125 278.479034 179.828125 C 274.468597 180.442688 271.161316 180.078125 268.557159 178.739563 C 265.963409 177.385406 264.036316 175.46875 262.775909 172.984375 C 261.531128 170.484375 260.874847 167.776031 260.812378 164.869781 C 260.734222 161.947906 261.192566 159.260406 262.187347 156.817719 L 262.484253 156.203125 C 263.786316 153.770844 265.041534 151.140625 266.255066 148.307312 C 267.479034 145.479187 268.775909 142.786469 270.135284 140.239594 C 271.494659 137.692719 272.968628 135.536469 274.557159 133.776062 C 276.156097 132.015656 277.932159 130.984406 279.874847 130.687531 C 282.744659 130.250031 284.963379 130.598969 286.531097 131.729187 C 288.104004 132.859406 288.968597 134.156281 289.130066 135.619812 C 289.244629 136.348969 289.015472 137.005219 288.452972 137.593781 C 287.885284 138.177094 287.187347 138.739594 286.359222 139.276062 C 285.541504 139.796906 284.843597 140.395844 284.260284 141.078125 C 283.682129 141.760437 283.458191 142.552094 283.598816 143.458344 C 283.682129 144.010437 284.270691 145.046875 285.369659 146.567719 C 286.479004 148.067719 287.671722 149.770844 288.952972 151.677094 C 290.239441 153.5625 291.213379 155.421875 291.874847 157.25 C 293.260254 156.979156 294.385254 156.3125 295.239441 155.255219 C 296.109222 154.182281 296.895691 152.90625 297.598785 151.432312 Z M 272.343628 161.520844 C 274.348816 161.213531 275.807159 160.338531 276.708191 158.895844 C 277.614441 157.447906 277.926941 155.786469 277.640472 153.895844 C 277.468597 152.796875 277.130066 151.703125 276.614441 150.609375 C 276.093628 149.505219 275.411316 148.390625 274.557159 147.276062 C 273.760284 146.151062 273.031097 146.260437 272.369659 147.609375 C 271.473816 149.489594 270.499847 151.401062 269.458191 153.338562 C 268.411316 155.260406 267.479034 156.96875 266.656128 158.463531 C 266.822784 159.5625 267.432159 160.40625 268.479034 160.989594 C 269.541534 161.572906 270.828003 161.75 272.343628 161.520844 Z M 316.380035 174.15625 C 312.729004 174.713531 309.604004 174.354156 307.005066 173.078125 C 304.421692 171.78125 302.359222 169.869781 300.822754 167.333344 C 299.275879 164.786469 298.275879 161.885406 297.807129 158.630219 C 297.343597 155.369781 297.411316 152.03125 298.02066 148.609375 C 298.624817 145.1875 299.749817 141.96875 301.406097 138.953125 C 303.057129 135.916687 305.239441 133.359406 307.947754 131.276062 C 310.650879 129.177094 313.859222 127.843781 317.577972 127.281281 C 320.42691 126.848969 322.83316 127.026062 324.796692 127.822937 C 326.755035 128.604187 328.291504 129.817719 329.406067 131.453156 C 330.52066 133.093781 331.234192 134.916687 331.536285 136.921875 C 331.869629 139.119812 331.593567 141.40625 330.70813 143.776062 C 329.838379 146.140625 328.411285 148.213562 326.432129 149.989594 C 324.463379 151.744781 321.98941 152.854187 318.999847 153.307281 C 317.723785 153.5 316.463379 153.604156 315.218597 153.609375 C 313.968597 153.598969 312.786285 153.369812 311.671722 152.916687 C 311.33316 152.786469 310.98941 152.833344 310.640472 153.052094 C 310.307129 153.255219 310.187347 153.661469 310.281097 154.270844 C 310.52066 155.84375 311.630035 156.90625 313.61441 157.453125 C 315.593597 157.989594 317.89566 158.057281 320.510223 157.661469 C 323.61441 157.1875 326.702972 155.911469 329.775879 153.833344 C 332.848785 151.739594 335.17688 148.953125 336.760254 145.479187 C 337.140442 144.677094 337.73941 144.317719 338.557129 144.40625 C 339.390472 144.489594 340.109192 144.802094 340.702942 145.333344 C 341.317535 145.864594 341.48938 146.458344 341.229004 147.125 C 338.33316 155.161469 334.786285 161.479156 330.588348 166.067719 C 326.406097 170.65625 321.671692 173.354156 316.380035 174.15625 Z M 315.598785 146.822937 C 317.354004 146.557312 318.640442 145.786469 319.463379 144.505219 C 320.30191 143.223969 320.635254 142 320.45816 140.84375 C 320.30191 139.817719 319.822754 138.994812 319.010254 138.369812 C 318.197754 137.734375 317.098785 137.520844 315.697754 137.734375 C 313.932129 138.005219 312.609222 138.765625 311.73941 140.026062 C 310.880035 141.28125 310.546722 142.515625 310.728973 143.734375 C 310.874847 144.703125 311.359222 145.515625 312.171692 146.182312 C 312.98941 146.833344 314.130035 147.046875 315.598785 146.822937 Z M 315.598785 146.822937"/>
    <path id="path4" fill="none" stroke="#f0dfc8" stroke-width="6.92533" d="M 97.234344 377.286316 C 93.281219 377.890503 89.578094 377.624878 86.124977 376.494659 C 82.687477 375.374878 79.796852 373.359253 77.453102 370.447815 C 75.124977 367.531128 73.604149 363.729065 72.890602 359.031128 C 72.343735 355.453003 72.369774 352.36969 72.963524 349.786346 C 73.578102 347.203003 74.526024 345.052002 75.817688 343.333252 C 77.104141 341.604065 78.536438 340.291565 80.119766 339.395721 C 81.697891 338.505127 83.16143 337.953003 84.494766 337.749878 C 85.656219 337.572815 86.604141 337.65094 87.338516 337.979065 C 88.072891 338.312378 88.489555 338.80719 88.588516 339.479065 C 88.69268 340.145721 88.520805 340.765503 88.072891 341.333252 C 87.624969 341.890503 87.187469 342.593628 86.75518 343.447815 C 86.31768 344.291565 86.229141 345.55719 86.489555 347.255127 C 86.859344 349.687378 87.822891 351.541565 89.385384 352.80719 C 90.958305 354.05719 92.927055 354.505096 95.291634 354.145721 C 97.489548 353.812378 99.177048 352.83844 100.364548 351.229065 C 101.546837 349.61969 101.968712 347.687378 101.624962 345.43219 C 101.354134 343.661346 100.614548 341.973846 99.395798 340.364471 C 98.192673 338.739471 96.843719 337.031128 95.354134 335.234253 C 93.88018 333.421783 92.489555 331.453003 91.197884 329.322815 C 89.91143 327.177002 89.062469 324.739502 88.645805 322.005127 C 88.218719 319.197815 88.44268 316.458252 89.312469 313.786377 C 90.182259 311.098877 91.802055 308.770752 94.177048 306.796783 C 96.552048 304.812408 99.744759 303.510315 103.755173 302.90097 C 107.348915 302.354065 110.317665 302.541595 112.661415 303.46344 C 115.02079 304.380127 116.83329 305.755127 118.098915 307.583252 C 119.380157 309.411377 120.187447 311.416565 120.52079 313.598877 C 120.937454 316.348877 120.593704 319.020752 119.484329 321.624878 C 118.385368 324.208252 116.687454 326.328033 114.385368 327.984283 C 114.104118 328.531158 113.536415 328.71344 112.692665 328.541565 C 111.854126 328.348877 111.124962 327.942627 110.499954 327.322815 C 109.874962 326.703003 109.734337 326.083252 110.08329 325.468658 C 110.42704 324.854065 110.651001 324.062408 110.744751 323.08844 C 110.854126 322.098877 110.749962 321.11969 110.437462 320.15094 C 110.135376 319.161377 109.609329 318.380127 108.869751 317.812408 C 108.130165 317.239502 107.119751 317.052002 105.843712 317.24469 C 104.328087 317.473877 103.083298 318.166565 102.098923 319.317627 C 101.119759 320.458252 100.802048 322.177002 101.151009 324.479065 C 101.401009 326.510315 102.244751 328.468628 103.687462 330.364502 C 105.130173 332.255127 106.781212 334.203003 108.635376 336.203003 C 110.48954 338.18219 112.182243 340.33844 113.718704 342.656128 C 115.260368 344.973846 116.244743 347.562378 116.677032 350.416565 C 117.36454 354.93219 116.989532 359.109253 115.55204 362.942596 C 114.109329 366.765503 111.817665 369.942566 108.67704 372.468628 C 105.552048 374.999878 101.734337 376.604034 97.234344 377.286316 Z M 130.963486 368.239441 C 127.739532 368.729065 125.354118 368.171753 123.802032 366.567566 C 122.249954 364.96344 121.270782 362.828003 120.864532 360.15094 C 120.515579 357.833191 120.416618 355.265503 120.583282 352.442596 C 120.744743 349.61969 121.083282 346.833221 121.593704 344.083221 C 123.343697 334.723846 124.843697 326.874908 126.083282 320.531158 C 127.333282 314.166565 128.729111 309.296783 130.265579 305.916565 C 131.802032 302.536377 133.791611 300.661377 136.229111 300.291595 C 138.114517 300.005127 139.411392 300.536377 140.11972 301.885315 C 140.828064 303.239502 140.692642 305.453064 139.718689 308.536377 C 138.005142 313.968689 136.572861 318.96344 135.432236 323.531158 C 134.286407 328.098877 133.484314 332.374878 133.025986 336.36969 C 132.802032 338.197815 132.708282 339.937378 132.749954 341.58844 C 132.786407 343.223877 133.182236 344.499878 133.947861 345.416565 C 134.708267 346.333221 136.005157 346.656128 137.833267 346.374878 C 139.406189 346.135315 140.729095 345.520721 141.791611 344.520721 C 142.854095 343.510315 143.755142 342.197815 144.499939 340.598846 C 144.880142 339.796753 145.479111 339.437378 146.296814 339.52594 C 147.130142 339.614471 147.848892 339.921753 148.447845 340.453033 C 149.057236 340.984253 149.234314 341.578003 148.968689 342.24469 C 148.510345 343.317596 147.989517 344.848846 147.411392 346.833252 C 146.843689 348.80719 146.124939 350.937378 145.260361 353.229065 C 144.390564 355.505096 143.302017 357.718628 142.005157 359.880096 C 140.723892 362.036316 139.187439 363.86969 137.395782 365.390503 C 135.604111 366.911316 133.458282 367.859253 130.963486 368.239441 Z M 187.958237 333.989471 C 188.234283 333.385315 188.775955 333.098877 189.583252 333.124878 C 190.411362 333.15094 191.150955 333.380127 191.812408 333.812378 C 192.468658 334.24469 192.66658 334.854065 192.406158 335.640503 C 191.838455 337.593658 191.015533 339.65094 189.94783 341.802002 C 188.874908 343.958221 187.41658 345.843628 185.562408 347.46344 C 183.72908 349.078003 181.317627 350.114471 178.328049 350.567596 L 177.239502 350.734253 C 175.468674 354.18219 173.156174 357.072815 170.302002 359.406128 C 167.447845 361.739471 164.312424 363.166565 160.895767 363.687378 C 156.828064 364.30719 153.24472 363.453003 150.156174 361.124878 C 147.062439 358.781128 145.156189 355.239471 144.437439 350.499878 C 143.916611 347.083221 144.010361 343.505096 144.718689 339.765503 C 145.427017 336.010315 146.671814 332.46344 148.458267 329.11969 C 150.260345 325.760315 152.536392 322.937408 155.286392 320.645752 C 158.05722 318.359283 161.265564 316.93219 164.921799 316.380127 C 167.416595 315.999908 169.744705 316.161377 171.906174 316.86969 C 174.062424 317.55719 175.911377 318.973877 177.453049 321.109283 C 178.989502 323.229065 180.052002 326.21344 180.63533 330.062408 C 181.130127 333.286377 181.150955 336.484253 180.703033 339.65094 L 181.328049 339.55719 C 182.66658 339.354065 183.890533 338.812378 185.005112 337.927002 C 186.114502 337.041565 187.098862 335.729065 187.958237 333.989471 Z M 163.239517 343.99469 C 164.755142 343.765503 166.020767 343.109253 167.041595 342.02594 C 168.062424 340.927002 168.80722 339.677002 169.27597 338.265503 C 169.744705 336.859253 169.885345 335.515533 169.687424 334.234253 C 169.484299 332.90094 168.921799 331.822815 167.989517 331.005127 C 167.05722 330.177002 165.708252 329.895752 163.937424 330.161377 C 162.484299 330.385315 161.255127 331.010315 160.260345 332.046753 C 159.260345 333.062378 158.536392 334.27594 158.098892 335.68219 C 157.656174 337.083221 157.541595 338.453003 157.74472 339.791565 C 157.947845 341.130096 158.484299 342.234253 159.364517 343.104065 C 160.239517 343.958252 161.531174 344.255096 163.239517 343.99469 Z M 195.411362 358.437378 C 193.286362 358.760315 191.546783 358.36969 190.192612 357.270691 C 188.838455 356.171753 188.020752 354.676941 187.734283 352.786346 C 187.411377 350.661316 187.192612 347.973846 187.078033 344.723877 C 186.94783 341.479065 187.239487 337.90094 187.953033 333.989502 C 188.656158 330.020721 189.380127 326.390503 190.130112 323.104065 C 190.874908 319.812408 191.72908 317.130127 192.687408 315.052002 C 193.65094 312.973877 194.739487 311.843689 195.958252 311.661377 C 196.999908 311.499908 197.781158 311.739502 198.301987 312.374939 C 198.838455 313.005127 199.176987 313.786377 199.317612 314.703033 C 199.546783 316.218658 200.156158 317.18219 201.145737 317.598877 C 202.15094 318.005127 203.270737 317.364502 204.505112 315.671783 C 205.96344 313.77594 207.536346 312.239502 209.229065 311.05719 C 210.916565 309.854065 212.760315 309.104065 214.765518 308.796783 C 217.0103 308.458252 218.86969 308.739502 220.343643 309.640533 C 221.817596 310.52594 222.890518 311.760315 223.5728 313.343658 C 223.786346 313.93219 224.078018 314.24469 224.4478 314.281158 C 224.833221 314.312408 225.296768 313.885315 225.848846 312.99469 C 227.317596 310.781158 228.953018 309.02594 230.749878 307.739502 C 232.54155 306.43219 234.536346 305.609314 236.734253 305.27594 C 240.317596 304.734314 242.958206 305.171783 244.66655 306.598877 C 246.385284 308.010315 247.421738 309.874908 247.775925 312.192627 C 248.015488 313.770752 247.989456 315.24469 247.697784 316.630127 C 247.41655 318.010315 247.130096 319.359283 246.827988 320.68219 C 246.531128 322.005127 246.494675 323.43219 246.72905 324.96344 C 247.208206 328.124908 248.942581 329.479065 251.926956 329.02594 C 253.327988 328.812408 254.426956 328.197815 255.229034 327.18219 C 256.041534 326.145752 256.801971 324.890533 257.505066 323.411377 C 257.885284 322.609253 258.484253 322.255127 259.301941 322.343628 C 260.135284 322.427002 260.854034 322.739502 261.453003 323.270752 C 262.062378 323.802002 262.239441 324.395752 261.973816 325.062378 C 261.515503 326.135315 260.994659 327.661377 260.416534 329.65094 C 259.848846 331.624908 259.130096 333.755096 258.265472 336.041565 C 257.395691 338.317627 256.307159 340.536377 255.010284 342.692627 C 253.729034 344.848846 252.192581 346.687378 250.400925 348.208221 C 248.609253 349.723846 246.463409 350.676971 243.968628 351.051971 C 241.057175 351.49469 238.874878 350.848846 237.426971 349.109253 C 235.973846 347.36969 235.051971 345.192596 234.656128 342.572815 C 234.301971 340.255096 234.286346 338.005096 234.60405 335.812378 C 234.926971 333.61969 235.275925 331.604065 235.650925 329.770752 C 236.020721 327.93219 236.119675 326.406158 235.932175 325.187378 C 235.775925 324.166565 235.338425 323.427002 234.614471 322.973877 C 233.890503 322.520752 233.0103 322.374908 231.973846 322.531158 C 230.203018 322.802002 228.687393 323.77594 227.421753 325.458252 C 226.156128 327.140533 225.234268 329.15094 224.645721 331.489502 C 224.072815 333.812378 223.96344 336.130127 224.312378 338.447815 C 224.515503 339.786377 224.775925 340.801971 225.098846 341.499878 C 225.432175 342.192627 225.6978 343.208221 225.900925 344.546753 C 226.098846 345.83844 226.098846 347.197815 225.906128 348.624878 C 225.713425 350.051971 225.109268 351.328003 224.093643 352.458221 C 223.093643 353.567596 221.432175 354.296753 219.114487 354.65094 C 217.051971 354.96344 215.223846 354.65094 213.635315 353.708221 C 212.062408 352.760315 211.051971 350.791565 210.598846 347.80719 C 210.24469 345.505127 210.291565 343.234253 210.723862 340.99469 C 211.171768 338.734253 211.630096 336.604065 212.098862 334.604065 C 212.572815 332.604065 212.692596 330.843628 212.463425 329.328003 C 212.27594 328.109283 211.822815 327.260315 211.093643 326.77594 C 210.364487 326.296783 209.484268 326.135315 208.442612 326.291565 C 206.687408 326.55719 205.176987 327.55719 203.906158 329.286377 C 202.645737 330.99469 201.734283 333.109283 201.176987 335.624878 C 200.630112 338.124908 200.562393 340.749878 200.984268 343.499878 L 201.60408 347.598877 C 201.833237 349.114502 201.880112 350.65094 201.734268 352.208221 C 201.604065 353.749878 201.067612 355.093628 200.114487 356.239441 C 199.176987 357.36969 197.609283 358.104065 195.411362 358.437378 Z M 300.963379 316.80719 C 301.234222 316.203033 301.775879 315.911377 302.588379 315.942627 C 303.411285 315.968658 304.156097 316.197815 304.812347 316.630127 C 305.473785 317.062408 305.671722 317.671783 305.411285 318.453033 C 304.838379 320.411377 304.020691 322.468658 302.947754 324.61969 C 301.880035 326.77594 300.416504 328.661377 298.567535 330.281158 C 296.729004 331.895752 294.317566 332.93219 291.33316 333.385315 L 290.239441 333.552002 C 288.468597 336.999878 286.156097 339.890503 283.307159 342.223877 C 280.452972 344.55719 277.317566 345.984253 273.900909 346.505096 C 269.827972 347.11969 266.249878 346.265503 263.161316 343.942627 C 260.067566 341.598846 258.161316 338.05719 257.442566 333.317596 C 256.921753 329.90094 257.015503 326.322815 257.723816 322.583252 C 258.426941 318.828033 259.676941 315.27594 261.463409 311.937408 C 263.260284 308.578033 265.536316 305.755127 268.291534 303.46344 C 271.057159 301.171783 274.270691 299.749939 277.926941 299.197815 C 280.421722 298.817627 282.749847 298.979065 284.906097 299.68219 C 287.062347 300.374908 288.916534 301.786377 290.452972 303.927002 C 291.994629 306.046783 293.057129 309.031158 293.640472 312.880127 C 294.130066 316.104065 294.150879 319.302002 293.70816 322.468628 L 294.33316 322.374908 C 295.666504 322.171753 296.895691 321.624908 298.005066 320.74469 C 299.119629 319.859283 300.104004 318.546783 300.963379 316.80719 Z M 276.239441 326.812408 C 277.755066 326.583252 279.025879 325.927002 280.046722 324.843628 C 281.067566 323.74469 281.807129 322.489502 282.281097 321.083252 C 282.749847 319.671783 282.885284 318.328033 282.692566 317.052002 C 282.489441 315.71344 281.921722 314.640533 280.994629 313.822815 C 280.062347 312.989502 278.713409 312.708252 276.942566 312.979065 C 275.489441 313.203033 274.260284 313.828033 273.260284 314.859283 C 272.260284 315.880127 271.541534 317.093658 271.098816 318.49469 C 270.661316 319.90094 270.541534 321.270752 270.744659 322.609283 C 270.947784 323.947815 271.489441 325.046753 272.364441 325.916565 C 273.239441 326.77594 274.531097 327.072815 276.239441 326.812408 Z M 362.666473 307.421783 C 362.952911 306.817627 363.499786 306.52594 364.312317 306.55719 C 365.119598 306.58844 365.853973 306.817627 366.515442 307.249908 C 367.171661 307.68219 367.369598 308.286377 367.109192 309.072815 C 366.541473 311.031158 365.723785 313.083252 364.650848 315.239502 C 363.577942 317.390533 362.119598 319.281128 360.265411 320.895752 C 358.432098 322.515503 356.025848 323.546753 353.057129 323.999908 C 352.072723 324.15094 351.103973 324.114502 350.14563 323.895752 C 348.343567 327.270752 346.338348 330.177002 344.124817 332.609253 C 341.911285 335.031128 339.463348 336.442627 336.791473 336.848846 C 335.515442 337.041565 334.244598 336.786346 332.978973 336.083252 C 331.718567 335.364471 330.604004 333.895721 329.64566 331.687408 C 328.682129 329.46344 328.062317 326.187408 327.786285 321.86969 C 326.817535 326.197815 325.557129 329.68219 323.994629 332.317627 C 322.432129 334.942627 320.765442 336.874878 318.994629 338.11969 C 317.218597 339.343628 315.484222 340.08844 313.791504 340.343628 C 311.354004 340.718628 309.244629 340.260315 307.452972 338.984253 C 305.671722 337.687378 304.249847 335.874878 303.182129 333.546753 C 302.114441 331.21344 301.369629 328.578033 300.952972 325.630127 C 300.531097 322.671783 300.473816 319.739502 300.775879 316.833252 C 300.968597 314.374908 301.312347 311.859283 301.817566 309.286377 C 302.338379 306.71344 302.989441 304.328033 303.765472 302.130127 C 304.55191 299.927002 305.447754 298.124939 306.452972 296.729065 C 307.458191 295.328064 308.598785 294.531189 309.874847 294.33844 C 310.781097 294.197815 311.52066 294.36969 312.093597 294.843689 C 312.666504 295.317627 313.057129 296.223877 313.260254 297.562408 C 313.52066 299.270752 313.452972 301.18222 313.062347 303.291565 C 312.666504 305.406189 312.291504 307.52594 311.932129 309.666565 C 311.572754 311.802002 311.531097 313.786377 311.812347 315.614502 C 312.067566 317.322815 312.687347 318.635315 313.661316 319.546783 C 314.635254 320.447815 315.947754 320.77594 317.593567 320.52594 C 319.838379 320.18219 321.447754 319.114502 322.421692 317.328033 C 323.39566 315.520752 323.947754 313.614502 324.08316 311.604065 C 324.218567 310.093658 324.192535 308.71344 323.999847 307.46344 C 323.812317 306.218658 323.64566 304.937408 323.505035 303.61969 C 323.380035 302.302002 323.406097 300.812408 323.583191 299.161377 C 324.02066 296.239502 324.812317 294.255127 325.95816 293.21347 C 327.109192 292.156189 328.713348 291.473877 330.775848 291.156189 C 334.609192 290.578064 336.843567 292.354095 337.473755 296.499939 C 337.692535 297.958252 337.52066 299.61969 336.952942 301.484314 C 336.400848 303.328033 335.843567 305.187408 335.291504 307.046783 C 334.73941 308.911377 334.577942 310.598877 334.807129 312.114502 C 335.067535 313.822815 335.687347 315.135315 336.661285 316.052002 C 337.635223 316.953033 338.942535 317.27594 340.593567 317.02594 C 342.244598 316.77594 343.603973 316.21344 344.671692 315.333252 C 345.749817 314.458252 346.635254 313.36969 347.322723 312.083252 C 346.853973 310.723877 346.432098 309.390564 346.05191 308.078033 C 345.671692 306.770752 345.369598 305.411377 345.156067 303.999908 C 344.749817 301.322845 344.697754 298.817627 344.994629 296.473877 C 345.286255 294.11972 346.015442 292.156158 347.17691 290.578064 C 348.33316 289.005127 349.947723 288.062439 352.010223 287.74472 C 354.390442 287.385345 356.046692 288.24472 356.984192 290.317627 C 357.921692 292.380127 358.17691 295.390533 357.744598 299.348877 C 357.327911 303.302002 356.23938 307.90094 354.478973 313.135315 C 354.786255 313.15094 355.057098 313.140533 355.296661 313.104065 C 355.55191 313.067627 355.796692 313.02594 356.031036 312.989502 C 357.385223 312.786377 358.609161 312.24469 359.70813 311.359283 C 360.817505 310.479065 361.80188 309.166565 362.666473 307.421783 Z M 375.197723 280.572815 C 373.015411 280.906189 371.057098 280.723877 369.322723 280.031189 C 367.603973 279.317627 366.562317 277.744751 366.192535 275.30722 C 365.697723 272.083252 366.265411 269.739502 367.880005 268.281189 C 369.499786 266.817657 371.546661 265.895752 374.025848 265.520752 C 376.343536 265.166626 378.385223 265.390564 380.14563 266.187439 C 381.92688 266.979095 382.911255 268.822845 383.109161 271.708252 C 383.281036 274.55722 382.598755 276.656189 381.057068 278.015564 C 379.531067 279.359314 377.577911 280.213501 375.197723 280.572815 Z M 372.593567 331.49469 C 369.546692 331.958221 367.213348 331.18219 365.598755 329.161377 C 363.984192 327.124908 362.937317 324.52594 362.452942 321.364502 C 362.130035 319.239502 361.994598 316.958252 362.05188 314.515533 C 362.119598 312.072815 362.322723 309.708252 362.661255 307.421814 C 363.791473 300.458252 365.088348 295.046814 366.55188 291.192627 C 368.015411 287.317627 370.057098 285.187439 372.671692 284.786377 C 374.734161 284.473877 375.978943 285.68222 376.390411 288.416565 C 376.671692 290.24472 376.603973 292.171814 376.197723 294.192627 C 375.791473 296.21344 375.39563 298.208252 375.010193 300.166565 C 374.624786 302.124939 374.557098 303.927002 374.807068 305.578064 C 375.036255 307.093689 375.588318 308.171783 376.463348 308.812439 C 377.33313 309.458252 378.380005 309.68219 379.598755 309.499908 C 381.010223 309.286377 382.119598 308.68219 382.92688 307.692627 C 383.734161 306.703064 384.494598 305.473877 385.213348 303.99469 C 385.593536 303.192627 386.17688 302.822815 386.958099 302.885315 C 387.744568 302.947815 388.447693 303.260315 389.062317 303.817627 C 389.682068 304.380127 389.874786 304.958252 389.64563 305.55719 C 389.187286 306.630127 388.687286 308.140533 388.14563 310.093658 C 387.603943 312.031189 386.916443 314.156158 386.08313 316.468658 C 385.249786 318.770752 384.223755 320.99469 383.015411 323.140533 C 381.822723 325.281158 380.374817 327.11969 378.682098 328.656128 C 376.984161 330.187378 374.952911 331.135315 372.593567 331.49469 Z M 396.046661 327.927002 C 392.630005 328.447815 389.952911 327.786377 388.015442 325.937378 C 386.088318 324.067627 384.869598 321.453033 384.359161 318.078033 C 383.843536 314.703033 383.963318 310.973877 384.70813 306.874908 C 385.156036 304.437439 385.661255 301.80719 386.218536 298.984283 C 386.791443 296.145752 387.411255 293.05719 388.072723 289.718689 C 386.734161 289.921814 385.666443 289.729095 384.859192 289.135315 C 384.057098 288.546814 383.468536 287.796814 383.103943 286.895752 C 382.755005 285.973877 382.630005 285.15097 382.728973 284.421814 C 382.843536 283.687439 383.17688 283.281189 383.728973 283.197815 C 386.400848 282.791595 388.385193 281.729095 389.676849 280.015564 C 390.978943 278.281189 391.807098 276.552002 392.166443 274.822845 C 392.859161 271.984314 393.666473 270.135345 394.588318 269.281189 C 395.515411 268.411377 396.562286 267.885345 397.723755 267.708252 C 399.432068 267.447876 400.603943 268.010376 401.239349 269.385376 C 401.885193 270.74472 401.728943 272.958252 400.765411 276.02597 C 400.317505 277.598877 400.119568 278.765564 400.156036 279.536377 C 400.213318 280.302002 400.671661 280.61972 401.536224 280.489502 L 406.281006 279.770752 C 406.890411 279.677002 407.348755 280.046814 407.661224 280.880127 C 407.968536 281.703064 408.098755 282.677002 408.057068 283.80719 C 408.015411 284.921814 407.77063 285.958252 407.322693 286.906189 C 406.869568 287.843689 406.187256 288.380127 405.265411 288.520752 C 402.468536 288.942627 400.421661 289.36969 399.119568 289.796814 C 397.812286 290.208252 396.952911 290.874939 396.531036 291.80722 C 396.109161 292.739502 395.749786 294.291565 395.45813 296.46344 C 394.958099 299.77594 395.478943 302.281189 397.010193 303.979065 C 398.546661 305.661377 400.656006 306.296814 403.343536 305.890533 C 405.171661 305.609283 406.739349 304.953033 408.041443 303.921814 C 409.343536 302.885315 410.338318 301.604065 411.031036 300.067627 C 411.411255 299.265564 411.994568 298.911377 412.786255 299.005127 C 413.588318 299.093689 414.291443 299.406158 414.890411 299.937439 C 415.499786 300.468689 415.708099 301.062408 415.499786 301.71344 C 415.109131 302.83844 414.593506 304.385315 413.947662 306.348877 C 413.317474 308.302002 412.525818 310.442627 411.572693 312.77594 C 410.619568 315.093658 409.432068 317.328033 408.010193 319.473877 C 406.603943 321.61969 404.906036 323.46344 402.921661 325.015533 C 400.952911 326.55719 398.661255 327.531158 396.046661 327.927002 Z M 415.333099 325.177002 C 414.176849 325.354065 413.411224 324.223877 413.041443 321.786377 C 412.702911 319.546783 412.958099 317.348877 413.817474 315.192627 C 414.676849 313.041565 415.879974 310.973877 417.432068 308.989502 C 418.999786 307.005127 420.692474 305.130127 422.505005 303.364502 C 424.333099 301.593658 426.062256 299.947815 427.682068 298.427002 C 429.322693 296.90097 430.640381 295.52594 431.640411 294.312439 C 432.640381 293.093658 433.083099 292.093689 432.963287 291.30719 C 432.702881 289.598877 431.145599 288.96344 428.296631 289.395752 C 425.307037 289.848877 422.801849 291.104065 420.770599 293.161377 C 418.760193 295.21344 417.004974 298.067627 415.505005 301.71344 L 411.036224 300.067627 C 412.228943 297.208252 413.145599 294.234314 413.786224 291.145752 C 414.442474 288.052002 414.916443 284.40094 415.218536 280.187439 C 415.421661 277.906189 416.255005 276.656189 417.728943 276.43222 C 418.692505 276.286377 419.400818 276.354095 419.853912 276.630127 C 420.307068 276.911377 420.640411 277.260345 420.853943 277.666595 C 421.067474 278.05722 421.317474 278.411377 421.609161 278.71347 C 421.911224 279.005127 422.426849 279.093689 423.156006 278.979095 C 423.879974 278.86972 424.541443 278.61972 425.135193 278.223877 C 425.728912 277.812439 426.468506 277.390564 427.359131 276.953064 C 428.265411 276.49472 429.473724 276.15097 430.989349 275.921814 C 433.187256 275.58847 435.088318 275.489502 436.687256 275.624939 C 438.301819 275.744751 439.916412 275.708252 441.531006 275.52597 C 443.156006 275.338501 445.067474 274.645752 447.254974 273.447876 C 447.702881 273.197845 448.156006 273.223877 448.614349 273.536377 C 449.072662 273.833252 449.270569 274.234314 449.208069 274.74472 C 449.213287 277.984314 448.629944 280.890564 447.458099 283.468689 C 446.296631 286.036377 444.853943 288.291595 443.129944 290.239502 C 441.400818 292.177002 439.697693 293.874939 438.025787 295.348877 C 436.348724 296.817627 434.963318 298.078033 433.879974 299.124908 C 432.786224 300.156158 432.301849 301.067627 432.421631 301.854065 C 432.656006 303.36969 434.932068 303.796783 439.254974 303.140533 C 442.109131 302.708252 444.692474 301.614502 447.010162 299.864502 C 449.327881 298.114502 451.025818 296.098877 452.109131 293.822815 C 452.874756 292.260315 453.671631 291.458252 454.499725 291.406189 C 455.343506 291.33844 455.989319 291.703064 456.447662 292.499939 C 456.916412 293.296814 456.963287 294.286377 456.577881 295.468689 C 456.197662 296.65094 455.655975 298.24472 454.958069 300.249908 C 454.275787 302.255127 453.385193 304.411377 452.291412 306.723877 C 451.213318 309.031189 449.890381 311.265533 448.322662 313.437408 C 446.765381 315.604065 444.906006 317.458252 442.739349 319.005127 C 440.572662 320.552002 438.093506 321.536377 435.296631 321.958252 C 433.218506 322.27594 431.624786 322.291565 430.515411 322.005127 C 429.421631 321.697815 428.536224 321.286377 427.864349 320.765533 C 427.192474 320.24469 426.520599 319.802002 425.838287 319.43219 C 425.161224 319.062408 424.275787 318.96344 423.192474 319.124908 C 421.661224 319.359283 420.572693 319.77594 419.916443 320.380127 C 419.265411 320.979065 418.781036 321.614502 418.473724 322.286377 C 418.182037 322.953003 417.843536 323.567627 417.45813 324.124878 C 417.067474 324.671753 416.359131 325.020752 415.333099 325.177002 Z M 415.333099 325.177002"/>
    <g id="g6">
        <g id="g7">
            <g id="g8">
                <path id="path5" fill="#233667" stroke="none" d="M 157.052933 202.307587 C 152.844604 202.943024 149.209183 202.729462 146.157104 201.661774 C 143.099808 200.60968 140.667511 198.911774 138.844604 196.57843 C 137.026886 194.245087 135.881058 191.526337 135.407104 188.411774 C 135.047729 185.969055 135.172729 183.599274 135.782104 181.307587 C 136.396683 179.01593 137.438354 177.04718 138.907104 175.39093 C 140.365433 173.724274 142.219604 172.719055 144.469604 172.370087 C 145.386261 172.23468 145.896683 172.526337 146.011261 173.245087 C 146.344604 175.510712 147.573761 177.213837 149.698761 178.349274 C 151.834183 179.474274 154.308136 179.82843 157.115433 179.411774 C 159.115433 179.10968 161.141479 178.255524 163.198761 176.849274 C 165.266479 175.448212 167.157104 173.432587 168.865433 170.807587 C 170.584183 168.182587 171.870636 164.943024 172.719604 161.07843 C 173.537308 157.411774 174.391479 153.713837 175.282104 149.974274 C 176.183136 146.224274 176.948761 143.14093 177.573761 140.724274 C 174.615433 140.54718 171.948761 140.963837 169.573761 141.974274 C 167.209183 142.989899 165.412308 144.469055 164.177933 146.411774 C 162.953979 148.344055 162.542511 150.651337 162.948761 153.32843 C 163.141479 154.661774 163.641479 155.719055 164.448761 156.495087 C 165.266479 157.276337 166.162308 157.588837 167.136261 157.432587 C 167.719604 158.349274 167.927933 159.526337 167.761261 160.95343 C 167.594604 162.370087 167.073761 163.786774 166.198761 165.20343 C 165.334183 166.60968 164.125854 167.864899 162.573761 168.974274 C 161.032104 170.088837 159.157104 170.807587 156.948761 171.14093 C 154.474808 171.51593 152.292511 171.276337 150.407104 170.411774 C 148.532104 169.536774 147.032104 168.26593 145.907104 166.599274 C 144.782104 164.932587 144.063354 163.068024 143.761261 160.995087 C 143.162308 157.052399 143.396683 153.177399 144.469604 149.370087 C 145.537308 145.552399 147.370636 142.068024 149.969604 138.911774 C 152.563354 135.745087 155.828979 133.073212 159.761261 130.89093 C 163.688354 128.698212 168.209183 127.213837 173.323761 126.432587 C 179.657104 125.463837 183.828979 126.276337 185.844604 128.870087 C 187.855011 131.469055 188.355011 135.32843 187.344604 140.45343 C 187.037308 142.177399 186.662308 144.260712 186.219604 146.70343 C 185.771683 149.135712 185.292511 151.739899 184.782104 154.51593 C 184.282104 157.29718 183.782104 160.031555 183.282104 162.724274 C 182.792511 165.42218 182.370636 167.823212 182.011261 169.932587 C 180.177933 180.364899 177.245636 188.114899 173.219604 193.182587 C 169.188354 198.239899 163.802933 201.276337 157.052933 202.307587 Z M 157.052933 202.307587"/>
            </g>
        </g>
    </g>
    <g id="g9">
        <g id="g10">
            <g id="g11">
                <path id="path6" fill="#233667" stroke="none" d="M 206.489136 190.874725 C 202.83287 191.432007 199.707886 191.072632 197.114136 189.791382 C 194.515167 188.499725 192.447464 186.583038 190.905792 184.041382 C 189.374542 181.499725 188.379761 178.603882 187.905792 175.353882 C 187.437042 172.093475 187.504761 168.749725 188.114136 165.333038 C 188.713089 161.905975 189.832886 158.676788 191.489136 155.645538 C 193.155792 152.619507 195.332886 150.062225 198.030792 147.978882 C 200.739136 145.885132 203.952667 144.551788 207.676636 143.978882 C 210.536011 143.551788 212.937042 143.728882 214.884964 144.520538 C 216.843292 145.312225 218.384964 146.530975 219.509964 148.166382 C 220.634964 149.807007 221.348511 151.624725 221.655792 153.624725 C 221.989136 155.822632 221.707886 158.103882 220.822464 160.478882 C 219.931839 162.853882 218.499542 164.926788 216.530792 166.687225 C 214.556839 168.45285 212.077667 169.557007 209.093292 169.999725 C 207.812042 170.197632 206.551636 170.301788 205.301636 170.312225 C 204.062042 170.312225 202.874542 170.083038 201.739136 169.624725 C 201.416214 169.499725 201.08287 169.541382 200.739136 169.749725 C 200.405792 169.958038 200.280792 170.369507 200.364136 170.978882 C 200.614136 172.562225 201.723511 173.624725 203.697464 174.166382 C 205.681839 174.708038 207.989136 174.780975 210.614136 174.374725 C 213.707886 173.905975 216.791214 172.624725 219.864136 170.541382 C 222.947464 168.447632 225.280792 165.661163 226.864136 162.187225 C 227.239136 161.369507 227.832886 161.010132 228.655792 161.103882 C 229.473511 161.20285 230.187042 161.51535 230.801636 162.041382 C 231.426636 162.572632 231.598511 163.166382 231.322464 163.833038 C 228.431839 171.864288 224.890167 178.176788 220.697464 182.770538 C 216.515167 187.369507 211.780792 190.072632 206.489136 190.874725 Z M 205.697464 163.541382 C 207.447464 163.26535 208.739136 162.489288 209.572464 161.208038 C 210.416214 159.932007 210.759964 158.718475 210.593292 157.562225 C 210.426636 156.510132 209.931839 155.676788 209.114136 155.062225 C 208.306839 154.45285 207.202667 154.249725 205.801636 154.458038 C 204.020386 154.723663 202.702667 155.489288 201.843292 156.749725 C 200.978714 157.999725 200.640167 159.228882 200.822464 160.437225 C 200.95787 161.411163 201.437042 162.228882 202.259964 162.895538 C 203.077667 163.551788 204.223511 163.76535 205.697464 163.541382 Z M 205.697464 163.541382"/>
            </g>
        </g>
    </g>
    <g id="g12">
        <g id="g13">
            <g id="g14">
                <path id="path7" fill="#233667" stroke="none" d="M 262.28067 156.802155 C 262.65567 155.984436 263.239014 155.625061 264.03067 155.718811 C 264.832764 155.81778 265.535889 156.135498 266.134827 156.677155 C 266.744202 157.208405 266.947327 157.796936 266.739014 158.447998 C 266.40567 159.562561 265.90567 161.114655 265.239014 163.114655 C 264.582764 165.114655 263.702545 167.276123 262.59317 169.593811 C 261.478577 171.901123 260.051514 174.156311 258.301514 176.364655 C 256.551514 178.562561 254.43692 180.458405 251.96817 182.052155 C 249.494217 183.635498 246.556717 184.687561 243.15567 185.197998 C 239.140045 185.812561 235.827545 185.44278 233.21817 184.093811 C 230.619217 182.750061 228.702545 180.833405 227.46817 178.343811 C 226.21817 175.843811 225.56192 173.145905 225.488998 170.239655 C 225.40567 167.322998 225.863998 164.645905 226.863998 162.197998 L 227.15567 161.572998 C 228.447342 159.13028 229.702545 156.500061 230.926498 153.677155 C 232.160873 150.843811 233.452545 148.156311 234.801498 145.614655 C 236.160873 143.062561 237.640045 140.901123 239.238998 139.135498 C 240.832748 137.359436 242.603592 136.322998 244.551498 136.031311 C 247.410873 135.604248 249.62442 135.958405 251.197342 137.093811 C 252.78067 138.218811 253.65567 139.526123 253.822342 141.010498 C 253.931717 141.734436 253.702545 142.395905 253.134842 142.989655 C 252.56192 143.572998 251.869217 144.13028 251.051498 144.656311 C 250.228592 145.171936 249.520248 145.770905 248.926498 146.447998 C 248.34317 147.114655 248.119217 147.906311 248.259842 148.822998 C 248.353592 149.38028 248.952545 150.416748 250.051498 151.927155 C 251.145248 153.44278 252.332748 155.151123 253.613998 157.052155 C 254.90567 158.94278 255.884842 160.796936 256.551514 162.614655 C 257.93692 162.338623 259.06192 161.671936 259.926514 160.614655 C 260.785889 159.546936 261.572327 158.276123 262.28067 156.802155 Z M 237.03067 166.885498 C 239.03067 166.583405 240.473373 165.708405 241.363998 164.260498 C 242.265045 162.81778 242.572342 161.151123 242.28067 159.260498 C 242.113998 158.166748 241.78067 157.06778 241.28067 155.968811 C 240.78067 154.875061 240.098373 153.760498 239.238998 152.635498 C 238.457748 151.526123 237.738998 151.635498 237.072342 152.968811 C 236.15567 154.859436 235.176498 156.770905 234.134842 158.697998 C 233.09317 160.63028 232.15567 162.343811 231.322342 163.843811 C 231.488998 164.94278 232.098373 165.781311 233.15567 166.364655 C 234.207748 166.947998 235.49942 167.125061 237.03067 166.885498 Z M 237.03067 166.885498"/>
            </g>
        </g>
    </g>
    <g id="g15">
        <g id="g16">
            <g id="g17">
                <path id="path8" fill="#233667" stroke="none" d="M 297.60556 151.430603 C 297.98056 150.612885 298.563873 150.25351 299.35556 150.34726 C 300.157623 150.446228 300.860748 150.763916 301.459717 151.305603 C 302.069092 151.836853 302.272217 152.425385 302.063873 153.076416 C 301.73056 154.19101 301.23056 155.743103 300.563873 157.743103 C 299.907623 159.743103 299.027435 161.904541 297.91806 164.22226 C 296.803467 166.529541 295.376373 168.78476 293.626373 170.993103 C 291.876373 173.19101 289.76181 175.086853 287.29306 176.680603 C 284.819092 178.263916 281.881592 179.31601 278.48056 179.826416 C 274.464935 180.44101 271.152435 180.071228 268.54306 178.72226 C 265.944092 177.37851 264.027435 175.461853 262.79306 172.97226 C 261.54306 170.47226 260.88681 167.774353 260.813873 164.868103 C 260.73056 161.951416 261.188873 159.274353 262.188873 156.826416 L 262.48056 156.201416 C 263.772217 153.758728 265.027435 151.12851 266.251373 148.305603 C 267.485748 145.47226 268.777435 142.78476 270.126373 140.243103 C 271.485748 137.69101 272.964935 135.529541 274.563873 133.763916 C 276.157623 131.987885 277.928467 130.951416 279.876373 130.65976 C 282.735748 130.232666 284.94931 130.586853 286.522217 131.72226 C 288.10556 132.84726 288.98056 134.154541 289.147217 135.638916 C 289.256592 136.362885 289.027435 137.024353 288.459717 137.618103 C 287.88681 138.201416 287.194092 138.758728 286.376373 139.28476 C 285.553467 139.800385 284.845123 140.399353 284.251373 141.076416 C 283.66806 141.743103 283.444092 142.53476 283.584717 143.451416 C 283.678467 144.008728 284.277435 145.045166 285.376373 146.555603 C 286.470123 148.071228 287.657623 149.779541 288.938873 151.680603 C 290.23056 153.571228 291.209717 155.425385 291.876373 157.243103 C 293.26181 156.967041 294.38681 156.300385 295.251373 155.243103 C 296.110748 154.175385 296.897217 152.904541 297.60556 151.430603 Z M 272.35556 161.513916 C 274.35556 161.211853 275.798248 160.336853 276.688873 158.888916 C 277.589935 157.446228 277.897217 155.779541 277.60556 153.888916 C 277.438873 152.795166 277.10556 151.696228 276.60556 150.59726 C 276.10556 149.50351 275.423248 148.388916 274.563873 147.263916 C 273.782623 146.154541 273.063873 146.263916 272.397217 147.59726 C 271.48056 149.487885 270.501373 151.399353 269.459717 153.326416 C 268.41806 155.258728 267.48056 156.97226 266.647217 158.47226 C 266.813873 159.571228 267.423248 160.40976 268.48056 160.993103 C 269.532623 161.576416 270.82431 161.75351 272.35556 161.513916 Z M 272.35556 161.513916"/>
            </g>
        </g>
    </g>
    <g id="g18">
        <g id="g19">
            <g id="g20">
                <path id="path9" fill="#233667" stroke="none" d="M 316.388763 174.163208 C 312.732513 174.72049 309.607513 174.361115 307.013763 173.079865 C 304.414825 171.788208 302.347107 169.871552 300.80545 167.329865 C 299.2742 164.788208 298.279388 161.892365 297.80545 158.642365 C 297.3367 155.381958 297.404388 152.038208 298.013763 148.621552 C 298.612732 145.194458 299.732513 141.965302 301.388763 138.934052 C 303.05545 135.90799 305.232513 133.350708 307.93045 131.267365 C 310.638763 129.173615 313.852325 127.840302 317.576263 127.267365 C 320.435638 126.840302 322.8367 127.017365 324.784607 127.809052 C 326.74295 128.600708 328.284607 129.819458 329.409607 131.454865 C 330.534607 133.09549 331.248138 134.913208 331.55545 136.913208 C 331.888763 139.111115 331.607513 141.392365 330.722107 143.767365 C 329.831482 146.142365 328.3992 148.215302 326.43045 149.975708 C 324.456482 151.741333 321.977325 152.84549 318.99295 153.288208 C 317.7117 153.486115 316.451263 153.590302 315.201263 153.600708 C 313.9617 153.600708 312.77417 153.371552 311.638763 152.913208 C 311.315857 152.788208 310.982513 152.829865 310.638763 153.038208 C 310.30545 153.246552 310.18045 153.65799 310.263763 154.267365 C 310.513763 155.850708 311.623138 156.913208 313.597107 157.454865 C 315.581482 157.996552 317.888763 158.069458 320.513763 157.663208 C 323.607513 157.194458 326.690857 155.913208 329.763763 153.829865 C 332.847107 151.736115 335.18045 148.949677 336.763763 145.475708 C 337.138763 144.65799 337.732513 144.298615 338.55545 144.392365 C 339.373138 144.491333 340.0867 144.803833 340.701263 145.329865 C 341.326263 145.861115 341.498138 146.454865 341.222107 147.121552 C 338.331482 155.152802 334.789825 161.465302 330.597107 166.059052 C 326.414825 170.65799 321.68045 173.361115 316.388763 174.163208 Z M 315.597107 146.829865 C 317.347107 146.553833 318.638763 145.777802 319.472107 144.496552 C 320.315857 143.22049 320.659607 142.006958 320.49295 140.850708 C 320.326263 139.798615 319.831482 138.965302 319.013763 138.350708 C 318.206482 137.741333 317.102325 137.538208 315.701263 137.746552 C 313.920013 138.012177 312.602325 138.777802 311.74295 140.038208 C 310.878357 141.288208 310.539825 142.517365 310.722107 143.725708 C 310.857513 144.699677 311.3367 145.517365 312.159607 146.184052 C 312.977325 146.840302 314.123138 147.053833 315.597107 146.829865 Z M 315.597107 146.829865"/>
            </g>
        </g>
    </g>
    <g id="g21">
        <g id="g22">
            <g id="g23">
                <path id="path10" fill="#233667" stroke="none" d="M 97.239555 377.294678 C 93.281219 377.888428 89.578094 377.627991 86.135391 376.502991 C 82.703094 375.377991 79.812469 373.367584 77.468719 370.461334 C 75.124977 367.544678 73.588516 363.747803 72.864555 359.065491 C 72.322891 355.471741 72.359344 352.377991 72.968719 349.794678 C 73.583305 347.211334 74.531219 345.060303 75.822891 343.336334 C 77.114555 341.601959 78.541641 340.289459 80.114555 339.398834 C 81.682266 338.497803 83.140594 337.950928 84.489555 337.752991 C 85.640594 337.575928 86.583305 337.648834 87.322891 337.982178 C 88.057266 338.305084 88.479141 338.794678 88.593719 339.461334 C 88.687469 340.127991 88.515594 340.752991 88.072891 341.336334 C 87.624977 341.909241 87.187469 342.617584 86.760391 343.461334 C 86.343719 344.294678 86.260391 345.565491 86.510391 347.273834 C 86.885391 349.706116 87.84893 351.555084 89.406219 352.815491 C 90.97393 354.065491 92.937469 354.513428 95.302055 354.148834 C 97.494766 353.815491 99.182266 352.846741 100.364555 351.232178 C 101.557266 349.622803 101.979141 347.690491 101.635391 345.440491 C 101.369766 343.664459 100.624969 341.971741 99.406219 340.357178 C 98.182266 338.732178 96.828094 337.018616 95.343719 335.211334 C 93.869766 333.409241 92.489555 331.440491 91.197891 329.315491 C 89.906219 327.180084 89.052055 324.732178 88.635391 321.982178 C 88.218719 319.190491 88.437469 316.456116 89.302055 313.773834 C 90.177055 311.096741 91.791641 308.763428 94.156219 306.773834 C 96.531219 304.789459 99.729141 303.492584 103.760391 302.877991 C 107.343719 302.336334 110.307266 302.523834 112.656219 303.440491 C 115.015594 304.357178 116.833305 305.732178 118.114555 307.565491 C 119.390594 309.398834 120.197891 311.414459 120.531219 313.607178 C 120.947891 316.346741 120.59893 319.013428 119.489555 321.607178 C 118.390594 324.206116 116.687469 326.331116 114.385391 327.982178 C 114.104141 328.539459 113.541641 328.721741 112.697891 328.523834 C 111.84893 328.331116 111.114555 327.930084 110.489555 327.315491 C 109.874969 326.690491 109.739555 326.075928 110.072891 325.461334 C 110.416641 324.851959 110.640594 324.060303 110.739555 323.086334 C 110.84893 322.101959 110.749969 321.117584 110.447891 320.127991 C 110.140594 319.143616 109.614555 318.367584 108.864555 317.794678 C 108.124969 317.226959 107.119766 317.039459 105.843719 317.232178 C 104.312469 317.471741 103.057266 318.164459 102.072891 319.315491 C 101.09893 320.456116 100.791641 322.185303 101.156219 324.502991 C 101.406219 326.502991 102.244766 328.456116 103.677055 330.357178 C 105.119766 332.247803 106.770805 334.190491 108.635391 336.190491 C 110.494766 338.180084 112.187469 340.331116 113.718719 342.648834 C 115.260391 344.971741 116.244766 347.565491 116.677055 350.440491 C 117.369766 354.940491 116.994766 359.107178 115.552055 362.940491 C 114.104141 366.763428 111.812469 369.935303 108.677055 372.461334 C 105.552055 374.992584 101.739555 376.601959 97.239555 377.294678 Z M 97.239555 377.294678"/>
            </g>
        </g>
    </g>
    <g id="g24">
        <g id="g25">
            <g id="g26">
                <path id="path11" fill="#233667" stroke="none" d="M 130.980301 368.229858 C 127.740723 368.729858 125.355301 368.182983 123.813637 366.583984 C 122.271973 364.990234 121.292801 362.849609 120.876137 360.167358 C 120.532387 357.849609 120.438637 355.281921 120.605301 352.458984 C 120.761551 349.625671 121.084473 346.833984 121.584473 344.083984 C 123.334473 334.724609 124.834473 326.870483 126.084473 320.521484 C 127.334473 314.162109 128.730301 309.292358 130.271973 305.917358 C 131.813629 302.531921 133.798004 300.646484 136.230301 300.271484 C 138.115723 299.979858 139.407394 300.521484 140.105301 301.896484 C 140.813629 303.261108 140.688629 305.469421 139.730301 308.521484 C 138.006348 313.953796 136.568848 318.953796 135.417801 323.521484 C 134.277176 328.094421 133.485504 332.370483 133.042801 336.354858 C 132.803223 338.203796 132.699051 339.948608 132.730301 341.583984 C 132.771973 343.224609 133.173004 344.500671 133.938629 345.417358 C 134.699051 346.333984 135.990723 346.656921 137.813629 346.375671 C 139.396973 346.125671 140.714676 345.500671 141.771973 344.500671 C 142.839676 343.500671 143.751129 342.203796 144.501129 340.604858 C 144.876129 339.771484 145.469879 339.406921 146.292801 339.500671 C 147.110504 339.599609 147.824051 339.917358 148.438629 340.458984 C 149.063629 340.990234 149.235504 341.583984 148.959473 342.250671 C 148.501129 343.307983 147.985504 344.833984 147.417801 346.833984 C 146.844879 348.823608 146.126129 350.953796 145.251129 353.229858 C 144.386551 355.511078 143.313629 357.729858 142.021973 359.896484 C 140.730301 362.052734 139.188629 363.886108 137.396973 365.396484 C 135.605301 366.912109 133.464676 367.854858 130.980301 368.229858 Z M 130.980301 368.229858"/>
            </g>
        </g>
    </g>
    <g id="g27">
        <g id="g28">
            <g id="g29">
                <path id="path12" fill="#233667" stroke="none" d="M 187.961731 333.982056 C 188.237762 333.388306 188.779434 333.101868 189.586731 333.12793 C 190.404434 333.15918 191.138809 333.388306 191.795059 333.81543 C 192.461731 334.232056 192.670059 334.84668 192.420059 335.648743 C 191.836731 337.59668 191.008606 339.648743 189.940887 341.81543 C 188.883606 343.97168 187.430481 345.857056 185.586731 347.482056 C 183.737762 349.09668 181.315887 350.12793 178.315887 350.586243 L 177.232559 350.75293 C 175.451309 354.200836 173.138809 357.086243 170.295059 359.419556 C 167.446106 361.742493 164.321106 363.164368 160.920059 363.69043 C 156.836731 364.304993 153.242981 363.450836 150.149231 361.12793 C 147.065887 358.794556 145.164856 355.247681 144.440887 350.482056 C 143.930481 347.081055 144.024231 343.513306 144.732559 339.773743 C 145.430481 336.023743 146.670059 332.47168 148.461731 329.107056 C 150.253387 325.747681 152.529434 322.929993 155.295059 320.648743 C 158.055481 318.357056 161.263809 316.935181 164.920059 316.37793 C 167.420059 315.992493 169.742981 316.148743 171.899231 316.857056 C 174.065887 317.554993 175.909637 318.97168 177.440887 321.107056 C 178.966934 323.247681 180.024231 326.232056 180.607559 330.06543 C 181.107559 333.289368 181.133606 336.482056 180.690887 339.648743 L 181.336731 339.56543 C 182.680481 339.357056 183.909637 338.810181 185.024231 337.919556 C 186.133606 337.03418 187.112762 335.72168 187.961731 333.982056 Z M 163.232559 344.00293 C 164.758606 343.768555 166.029434 343.107056 167.045059 342.023743 C 168.055481 340.94043 168.800262 339.69043 169.274231 338.273743 C 169.742981 336.857056 169.883606 335.513306 169.690887 334.232056 C 169.492981 332.888306 168.925262 331.804993 167.982559 330.982056 C 167.050262 330.164368 165.701309 329.893555 163.940887 330.169556 C 162.482559 330.393555 161.253387 331.013306 160.253387 332.023743 C 159.263809 333.039368 158.550262 334.25293 158.107559 335.669556 C 157.659653 337.075806 157.545059 338.44043 157.753387 339.773743 C 157.961731 341.122681 158.492981 342.226868 159.357559 343.086243 C 160.232559 343.950806 161.524231 344.25293 163.232559 344.00293 Z M 163.232559 344.00293"/>
            </g>
        </g>
    </g>
    <g id="g30">
        <g id="g31">
            <g id="g32">
                <path id="path13" fill="#233667" stroke="none" d="M 195.410431 358.437683 C 193.285431 358.76062 191.545853 358.369995 190.202103 357.271027 C 188.858353 356.177307 188.035431 354.682495 187.743774 352.79187 C 187.426056 350.656433 187.202103 347.968933 187.077103 344.72937 C 186.952103 341.47937 187.243774 337.906433 187.952103 334.000183 C 188.660431 330.031433 189.384399 326.396027 190.118774 323.10437 C 190.868774 319.812683 191.722931 317.13562 192.681274 315.062683 C 193.650024 312.97937 194.748978 311.843933 195.972931 311.646027 C 196.998978 311.494995 197.775024 311.739777 198.306274 312.375183 C 198.832306 313.015808 199.165649 313.786652 199.306274 314.687683 C 199.540649 316.218933 200.160431 317.187683 201.160431 317.60437 C 202.160431 318.01062 203.269806 317.369995 204.493774 315.687683 C 205.952103 313.786652 207.519806 312.239777 209.202103 311.04187 C 210.894806 309.849152 212.748978 309.099152 214.764603 308.79187 C 217.014603 308.44812 218.873978 308.724152 220.347931 309.625183 C 221.816681 310.531433 222.894806 311.765808 223.577103 313.333527 C 223.795853 313.94812 224.097931 314.265808 224.472931 314.29187 C 224.847931 314.32312 225.311478 313.890808 225.868774 313.000183 C 227.327103 310.781433 228.952103 309.021027 230.743774 307.72937 C 232.545853 306.427277 234.545853 305.60437 236.743774 305.271027 C 240.327103 304.718933 242.972931 305.156433 244.681274 306.583527 C 246.389603 308.000183 247.420853 309.869995 247.785431 312.187683 C 248.019806 313.76062 247.993774 315.239777 247.702103 316.625183 C 247.420853 318.015808 247.129181 319.369995 246.827103 320.687683 C 246.519806 322.01062 246.483353 323.432495 246.722931 324.958527 C 247.191681 328.125183 248.920853 329.47937 251.910431 329.021027 C 253.311478 328.812683 254.415649 328.19812 255.222931 327.16687 C 256.040649 326.140808 256.795837 324.890808 257.493774 323.41687 C 257.879181 322.599152 258.483337 322.239777 259.306274 322.333527 C 260.139587 322.41687 260.853149 322.72937 261.452087 323.271027 C 262.061462 323.802277 262.233337 324.396027 261.972931 325.062683 C 261.514587 326.13562 260.993774 327.661652 260.410431 329.646027 C 259.837524 331.63562 259.118774 333.765808 258.243774 336.04187 C 257.379181 338.32312 256.306274 340.54187 255.014603 342.708527 C 253.733353 344.864777 252.202103 346.69812 250.410431 348.208527 C 248.618774 349.724182 246.472931 350.677307 243.972931 351.062683 C 241.040649 351.51062 238.853149 350.864777 237.410431 349.125183 C 235.962524 347.375183 235.040649 345.187683 234.639603 342.562683 C 234.290649 340.26062 234.275024 338.01062 234.597931 335.812683 C 234.915649 333.619995 235.264603 331.60437 235.639603 329.771027 C 236.014603 327.937683 236.108353 326.41687 235.931274 325.208527 C 235.764603 324.156433 235.316681 323.406433 234.597931 322.958527 C 233.889603 322.515808 233.019806 322.369995 231.993774 322.521027 C 230.228149 322.802277 228.707306 323.781433 227.431274 325.458527 C 226.150024 327.140808 225.222931 329.146027 224.639603 331.47937 C 224.066681 333.802277 223.962524 336.119995 224.327103 338.437683 C 224.519806 339.771027 224.775024 340.79187 225.097931 341.500183 C 225.415649 342.19812 225.681274 343.208527 225.889603 344.54187 C 226.082306 345.82312 226.082306 347.182495 225.889603 348.625183 C 225.707306 350.057495 225.108353 351.328308 224.097931 352.437683 C 223.097931 353.552307 221.441681 354.286682 219.139603 354.646027 C 217.056274 354.953308 215.222931 354.640808 213.639603 353.708527 C 212.066681 352.765808 211.061478 350.802307 210.618774 347.812683 C 210.254181 345.494995 210.290649 343.218933 210.722931 340.97937 C 211.165649 338.72937 211.623978 336.60437 212.097931 334.60437 C 212.566681 332.60437 212.691681 330.843933 212.472931 329.312683 C 212.290649 328.10437 211.832306 327.26062 211.097931 326.771027 C 210.373978 326.286652 209.493774 326.119995 208.452103 326.271027 C 206.702103 326.536652 205.186478 327.536652 203.910431 329.271027 C 202.629181 330.994995 201.722931 333.114777 201.181274 335.625183 C 200.639603 338.125183 200.577103 340.750183 200.993774 343.500183 L 201.618774 347.583527 C 201.853149 349.114777 201.894806 350.656433 201.743774 352.208527 C 201.603149 353.750183 201.061478 355.093933 200.118774 356.22937 C 199.170853 357.369995 197.603149 358.10437 195.410431 358.437683 Z M 195.410431 358.437683"/>
            </g>
        </g>
    </g>
    <g id="g33">
        <g id="g34">
            <g id="g35">
                <path id="path14" fill="#233667" stroke="none" d="M 300.964874 316.798645 C 301.240906 316.204895 301.782593 315.918457 302.589874 315.944458 C 303.407593 315.975708 304.141968 316.204895 304.798218 316.631958 C 305.464874 317.048645 305.673218 317.663208 305.423218 318.465332 C 304.839874 320.413208 304.011749 322.465332 302.944031 324.631958 C 301.886749 326.788208 300.433624 328.673645 298.589874 330.298645 C 296.740906 331.913208 294.319031 332.944458 291.319031 333.402832 L 290.235718 333.569458 C 288.454468 337.017395 286.141968 339.902832 283.298218 342.236145 C 280.449249 344.559082 277.324249 345.980957 273.923218 346.506958 C 269.839874 347.121582 266.246124 346.267395 263.152374 343.944458 C 260.069031 341.611145 258.167999 338.06427 257.444031 333.298645 C 256.933624 329.897583 257.027374 326.329895 257.735718 322.590332 C 258.433624 318.840332 259.673218 315.288208 261.464874 311.923645 C 263.256531 308.56427 265.532562 305.746582 268.298218 303.465332 C 271.058624 301.173645 274.266937 299.75177 277.923218 299.194458 C 280.423218 298.809082 282.746124 298.965332 284.902374 299.673645 C 287.069031 300.371582 288.912781 301.788208 290.444031 303.923645 C 291.970093 306.06427 293.027374 309.048645 293.610718 312.881958 C 294.110718 316.105957 294.136749 319.298645 293.694031 322.465332 L 294.339874 322.381958 C 295.683624 322.173645 296.912781 321.62677 298.027374 320.736145 C 299.136749 319.850708 300.115906 318.538208 300.964874 316.798645 Z M 276.235718 326.819458 C 277.761749 326.585083 279.032593 325.923645 280.048218 324.840332 C 281.058624 323.756958 281.803406 322.506958 282.277374 321.090332 C 282.746124 319.673645 282.886749 318.329895 282.694031 317.048645 C 282.496124 315.704895 281.928406 314.621582 280.985718 313.798645 C 280.053406 312.980957 278.704468 312.710083 276.944031 312.986145 C 275.485718 313.210083 274.256531 313.829895 273.256531 314.840332 C 272.266937 315.855957 271.553406 317.069458 271.110718 318.486145 C 270.662781 319.892395 270.548218 321.256958 270.756531 322.590332 C 270.964874 323.93927 271.496124 325.043457 272.360718 325.902832 C 273.235718 326.767395 274.527374 327.069458 276.235718 326.819458 Z M 276.235718 326.819458"/>
            </g>
        </g>
    </g>
    <g id="g36">
        <g id="g37">
            <g id="g38">
                <path id="path15" fill="#233667" stroke="none" d="M 362.663574 307.420929 C 362.939606 306.811554 363.486481 306.525085 364.309418 306.566772 C 365.127106 306.598022 365.861481 306.827179 366.517731 307.254272 C 367.168793 307.670929 367.371918 308.275085 367.121918 309.066772 C 366.538574 311.025085 365.710449 313.087585 364.642731 315.254272 C 363.569824 317.410522 362.111481 319.295929 360.267731 320.920929 C 358.434418 322.535522 356.022949 323.566772 353.038574 324.025085 C 352.064606 324.181335 351.090668 324.139679 350.121918 323.900085 C 348.340668 327.275085 346.340668 330.181335 344.121918 332.608429 C 341.913574 335.025085 339.465668 336.441772 336.788574 336.858429 C 335.496918 337.056335 334.226074 336.795929 332.976074 336.087585 C 331.726074 335.368835 330.611481 333.894897 329.642731 331.670929 C 328.684418 329.452179 328.064606 326.186554 327.788574 321.879272 C 326.814606 326.186554 325.548981 329.660522 323.996918 332.295929 C 322.439606 334.936554 320.772949 336.874054 318.996918 338.108429 C 317.215668 339.348022 315.481293 340.098022 313.788574 340.358429 C 311.340668 340.723022 309.226074 340.264679 307.434418 338.983429 C 305.653168 337.691772 304.231293 335.889679 303.163574 333.566772 C 302.111481 331.233429 301.371918 328.587585 300.955231 325.629272 C 300.538574 322.670929 300.476074 319.743835 300.767731 316.837585 C 300.950043 314.379272 301.298981 311.868835 301.809418 309.295929 C 302.325043 306.72821 302.965668 304.337585 303.746918 302.129272 C 304.538574 299.920929 305.434418 298.124054 306.434418 296.733429 C 307.444824 295.332397 308.590668 294.535522 309.871918 294.337585 C 310.772949 294.202179 311.507324 294.368835 312.080231 294.837585 C 312.663574 295.311554 313.048981 296.212585 313.246918 297.545929 C 313.507324 299.254272 313.439606 301.16571 313.038574 303.275085 C 312.647949 305.389679 312.272949 307.519897 311.913574 309.670929 C 311.564606 311.811554 311.528168 313.795929 311.809418 315.629272 C 312.059418 317.327179 312.673981 318.629272 313.663574 319.545929 C 314.647949 320.452179 315.955231 320.775085 317.580231 320.525085 C 319.830231 320.181335 321.439606 319.108429 322.413574 317.316772 C 323.397949 315.525085 323.955231 313.624054 324.080231 311.608429 C 324.215668 310.082397 324.189606 308.702179 323.996918 307.462585 C 323.814606 306.212585 323.653168 304.931335 323.517731 303.608429 C 323.377106 302.29071 323.397949 300.806335 323.580231 299.150085 C 324.007324 296.233429 324.793793 294.254272 325.934418 293.212585 C 327.085449 292.160522 328.705231 291.473022 330.788574 291.150085 C 334.606293 290.566772 336.830231 292.348022 337.455231 296.483429 C 337.673981 297.957397 337.507324 299.624054 336.955231 301.483429 C 336.397949 303.332397 335.840668 305.186554 335.288574 307.045929 C 334.731293 308.910522 334.569824 310.60321 334.809418 312.129272 C 335.059418 313.827179 335.668793 315.129272 336.642731 316.045929 C 337.627106 316.952179 338.939606 317.275085 340.580231 317.025085 C 342.231293 316.775085 343.601074 316.212585 344.684418 315.337585 C 345.767731 314.462585 346.642731 313.379272 347.309418 312.087585 C 346.861481 310.72821 346.439606 309.394897 346.038574 308.087585 C 345.647949 306.769897 345.351074 305.41571 345.142731 304.025085 C 344.736481 301.348022 344.684418 298.832397 344.976074 296.483429 C 345.278168 294.139679 346.017731 292.170929 347.184418 290.587585 C 348.351074 289.004272 349.965668 288.056335 352.038574 287.733429 C 354.397949 287.374054 356.043793 288.233429 356.976074 290.316772 C 357.918793 292.389679 358.173981 295.400085 357.746918 299.358429 C 357.330231 303.306335 356.236481 307.894897 354.476074 313.129272 C 354.778168 313.160522 355.059418 313.150085 355.309418 313.108429 C 355.559418 313.066772 355.798981 313.035522 356.038574 313.004272 C 357.382324 312.795929 358.611481 312.249054 359.726074 311.358429 C 360.835449 310.473022 361.814606 309.160522 362.663574 307.420929 Z M 362.663574 307.420929"/>
            </g>
        </g>
    </g>
    <g id="g39">
        <g id="g40">
            <g id="g41">
                <path id="path16" fill="#233667" stroke="none" d="M 375.222198 280.558899 C 373.024292 280.892212 371.06073 280.715149 369.326355 280.017212 C 367.602417 279.324524 366.555542 277.762024 366.180542 275.329712 C 365.690948 272.110962 366.253448 269.762024 367.868042 268.288055 C 369.477417 266.819305 371.534698 265.892212 374.034698 265.517212 C 376.336792 265.173462 378.378448 265.402649 380.159698 266.204712 C 381.93573 266.996399 382.920105 268.829712 383.118042 271.704712 C 383.295105 274.55368 382.618042 276.652649 381.076355 277.996399 C 379.545105 279.345337 377.597198 280.199524 375.222198 280.558899 Z M 372.576355 331.496399 C 369.534698 331.954712 367.201355 331.173462 365.576355 329.142212 C 363.96698 327.11618 362.925323 324.517212 362.451355 321.350555 C 362.118042 319.225555 361.987823 316.949524 362.055542 314.517212 C 362.112823 312.074524 362.315948 309.715149 362.659698 307.433899 C 363.784698 300.465149 365.081573 295.048462 366.555542 291.183899 C 368.024292 287.308899 370.065948 285.17868 372.680542 284.788055 C 374.74823 284.470337 375.993042 285.67868 376.409698 288.413055 C 376.68573 290.235962 376.618042 292.157837 376.201355 294.183899 C 375.795105 296.215149 375.394073 298.204712 374.993042 300.163055 C 374.602417 302.121399 374.534698 303.92868 374.784698 305.579712 C 375.019073 307.095337 375.576355 308.173462 376.451355 308.808899 C 377.336792 309.449524 378.394073 309.67868 379.618042 309.496399 C 381.019073 309.288055 382.12323 308.694305 382.930542 307.704712 C 383.732605 306.704712 384.493042 305.470337 385.201355 303.996399 C 385.576355 303.17868 386.159698 302.80368 386.951355 302.871399 C 387.743042 302.944305 388.440948 303.262024 389.055542 303.829712 C 389.664917 304.387024 389.857605 304.965149 389.638855 305.558899 C 389.190948 306.631805 388.690948 308.142212 388.138855 310.100555 C 387.597198 312.048462 386.909698 314.173462 386.076355 316.475555 C 385.253448 318.767212 384.243042 320.99118 383.034698 323.142212 C 381.836792 325.282837 380.388855 327.121399 378.680542 328.663055 C 376.982605 330.194305 374.951355 331.137024 372.576355 331.496399 Z M 372.576355 331.496399"/>
            </g>
        </g>
    </g>
    <g id="g42">
        <g id="g43">
            <g id="g44">
                <path id="path17" fill="#233667" stroke="none" d="M 396.051788 327.936096 C 392.635132 328.451721 389.958038 327.779846 388.030945 325.915253 C 386.103882 324.055878 384.879913 321.436096 384.364288 318.061096 C 383.853882 314.686096 383.963257 310.956909 384.697632 306.873596 C 385.155945 304.430878 385.666382 301.800659 386.218445 298.977753 C 386.775757 296.160034 387.395538 293.076721 388.093445 289.727753 C 386.749695 289.936096 385.67157 289.743378 384.864288 289.144409 C 384.062195 288.550659 383.48407 287.800659 383.135132 286.894409 C 382.775757 285.977753 382.645538 285.154846 382.739288 284.415253 C 382.838257 283.680878 383.166382 283.269409 383.718445 283.186096 C 386.400757 282.785034 388.385132 281.722534 389.676788 279.998596 C 390.978882 278.279846 391.812195 276.555878 392.176788 274.831909 C 392.869507 271.988159 393.676788 270.134003 394.593445 269.269409 C 395.520538 268.410034 396.562195 267.889221 397.718445 267.706909 C 399.426788 267.456909 400.598663 268.014221 401.239288 269.373596 C 401.89032 270.738159 401.728882 272.956909 400.760132 276.040253 C 400.312195 277.597534 400.114288 278.759003 400.155945 279.519409 C 400.208038 280.285034 400.661163 280.602753 401.510132 280.477753 L 406.260132 279.748596 C 406.869507 279.665253 407.333038 280.040253 407.655945 280.873596 C 407.973663 281.706909 408.103882 282.686096 408.051788 283.811096 C 408.010132 284.925659 407.76532 285.951721 407.322632 286.894409 C 406.874695 287.842346 406.197632 288.384003 405.280945 288.519409 C 402.473663 288.951721 400.411163 289.373596 399.093445 289.790253 C 397.786163 290.196503 396.926788 290.868378 396.510132 291.811096 C 396.093445 292.743378 395.744507 294.290253 395.468445 296.456909 C 394.95282 299.748596 395.468445 302.248596 397.010132 303.956909 C 398.551788 305.654846 400.661163 306.300659 403.343445 305.894409 C 405.176788 305.618378 406.739288 304.967346 408.030945 303.936096 C 409.333038 302.894409 410.343445 301.602753 411.051788 300.061096 C 411.411163 299.243378 411.989288 298.884003 412.780945 298.977753 C 413.583038 299.076721 414.286163 299.394409 414.885132 299.936096 C 415.494507 300.467346 415.697632 301.055878 415.489288 301.706909 C 415.098663 302.831909 414.583038 304.384003 413.947632 306.352753 C 413.307007 308.311096 412.510132 310.451721 411.551788 312.769409 C 410.603882 315.092346 409.426788 317.326721 408.010132 319.477753 C 406.593445 321.634003 404.895538 323.477753 402.926788 325.019409 C 400.95282 326.561096 398.661163 327.535034 396.051788 327.936096 Z M 396.051788 327.936096"/>
            </g>
        </g>
    </g>
    <g id="g45">
        <g id="g46">
            <g id="g47">
                <path id="path18" fill="#233667" stroke="none" d="M 415.329132 325.181641 C 414.172882 325.363953 413.417694 324.238953 413.058319 321.806641 C 412.714569 319.556641 412.959351 317.358734 413.808319 315.202484 C 414.667694 313.051453 415.876007 310.983734 417.433319 308.994141 C 419.001007 307.009766 420.688507 305.134766 422.495819 303.369141 C 424.313507 301.593109 426.042694 299.942078 427.683319 298.410828 C 429.318726 296.884766 430.641632 295.514984 431.641632 294.306641 C 432.641632 293.098328 433.084351 292.108734 432.974976 291.327484 C 432.709351 289.608734 431.146851 288.962891 428.287476 289.389984 C 425.297882 289.848328 422.797882 291.108734 420.787476 293.160828 C 418.771851 295.218109 417.006226 298.072266 415.495819 301.723328 L 411.037476 300.077484 C 412.235382 297.202484 413.152069 294.223328 413.808319 291.139984 C 414.459351 288.056641 414.922882 284.405609 415.204132 280.181641 C 415.422882 277.905609 416.256226 276.655609 417.704132 276.431641 C 418.672882 276.296234 419.391632 276.363953 419.849976 276.639984 C 420.308319 276.905609 420.641632 277.244141 420.849976 277.660828 C 421.068726 278.067078 421.329132 278.410828 421.620819 278.702484 C 421.912476 278.994141 422.422882 279.087891 423.162476 278.973328 C 423.881226 278.863953 424.537476 278.608734 425.120819 278.202484 C 425.714569 277.801453 426.459351 277.379578 427.349976 276.931641 C 428.251007 276.488953 429.464569 276.150391 430.995819 275.910828 C 433.188507 275.577484 435.089569 275.483734 436.704132 275.619141 C 438.313507 275.744141 439.922882 275.718109 441.537476 275.535828 C 443.162476 275.343109 445.063507 274.650391 447.245819 273.452484 C 447.714569 273.192078 448.172882 273.218109 448.620819 273.535828 C 449.063507 273.843109 449.256226 274.238953 449.204132 274.723328 C 449.214569 277.973328 448.631226 280.889984 447.454132 283.473328 C 446.287476 286.046234 444.834351 288.301453 443.099976 290.244141 C 441.376007 292.176453 439.672882 293.879578 437.995819 295.348328 C 436.329132 296.806641 434.954132 298.056641 433.870819 299.098328 C 432.787476 300.139984 432.297882 301.056641 432.412476 301.848328 C 432.646851 303.379578 434.922882 303.817078 439.245819 303.160828 C 442.120819 302.718109 444.709351 301.619141 447.016632 299.869141 C 449.318726 298.108734 451.016632 296.093109 452.099976 293.827484 C 452.860382 292.275391 453.662476 291.468109 454.495819 291.410828 C 455.339569 291.343109 455.995819 291.712891 456.454132 292.514984 C 456.912476 293.306641 456.954132 294.296234 456.579132 295.473328 C 456.188507 296.655609 455.646851 298.254578 454.954132 300.264984 C 454.271851 302.264984 453.391632 304.421265 452.308319 306.723328 C 451.224976 309.030609 449.896851 311.264984 448.329132 313.431641 C 446.756226 315.598328 444.891632 317.462891 442.724976 319.014984 C 440.568726 320.556641 438.099976 321.535828 435.308319 321.952484 C 433.224976 322.275391 431.626007 322.285828 430.516632 321.994141 C 429.417694 321.702484 428.537476 321.296265 427.870819 320.764984 C 427.204132 320.238953 426.527069 319.796265 425.849976 319.431641 C 425.167694 319.072266 424.287476 318.973328 423.204132 319.139984 C 421.672882 319.363953 420.579132 319.775391 419.912476 320.369141 C 419.256226 320.968109 418.777069 321.608734 418.474976 322.285828 C 418.183319 322.952484 417.839569 323.567078 417.454132 324.119141 C 417.063507 324.676453 416.355194 325.030609 415.329132 325.181641 Z M 415.329132 325.181641"/>
            </g>
        </g>
    </g>
    <clipPath id="clipPath7">
        <path d="M 236 221.333344 L 269.333344 221.333344 L 269.333344 253.333344 L 236 253.333344 Z M 236 221.333344"/>
    </clipPath>
    <g id="g48" clip-path="url(#clipPath7)">
        <clipPath id="clipPath8">
            <path d="M 222.010422 257.052094 L 216 214.473969 L 264.515625 207.625 L 270.526031 250.203125 Z M 222.010422 257.052094"/>
        </clipPath>
        <g id="g49" clip-path="url(#clipPath8)">
            <clipPath id="clipPath9">
                <path d="M 222.010422 257.052094 L 216 214.473969 L 264.515625 207.625 L 270.526031 250.203125 Z M 222.010422 257.052094"/>
            </clipPath>
            <g id="g50" clip-path="url(#clipPath9)">
                <path id="path19" fill="#c38d14" stroke="none" d="M 245.104172 227.520844 L 241.609375 226.28125 L 239.364578 229.265625 L 241.53125 232.291687 C 241.0625 233.390625 240.755203 234.567719 240.630203 235.791687 L 237.265625 237.395844 L 237.786453 241.088562 L 241.463547 241.697937 C 241.921875 242.838562 242.546875 243.885437 243.296875 244.8125 L 242.052078 248.322922 L 245.036453 250.567719 L 248.052078 248.40625 C 249.161453 248.880219 250.34375 249.192719 251.572922 249.322922 L 253.166672 252.666672 L 256.864594 252.145844 L 257.46875 248.505219 C 258.625 248.041672 259.682281 247.411469 260.625 246.651047 L 264.09375 247.880219 L 266.338531 244.895844 L 264.203125 241.911469 C 264.6875 240.791687 265 239.588562 265.130219 238.34375 L 268.4375 236.765625 L 267.916656 233.067719 L 264.302094 232.46875 C 263.833344 231.307312 263.197906 230.239594 262.421875 229.296875 L 263.651031 225.838562 L 260.666656 223.59375 L 257.671875 225.734375 C 256.557281 225.260437 255.364578 224.947937 254.125 224.822937 L 252.536453 221.494812 L 248.838547 222.015625 L 248.234375 225.666687 C 247.088547 226.130219 246.041672 226.760437 245.104172 227.520844 Z M 260.963531 235.932312 C 261.59375 240.401062 258.484375 244.53125 254.020828 245.161469 C 249.552078 245.791672 245.421875 242.682312 244.791672 238.21875 C 244.161453 233.75 247.270828 229.619812 251.734375 228.989594 C 256.203125 228.359375 260.333344 231.46875 260.963531 235.932312 Z M 260.963531 235.932312"/>
            </g>
        </g>
    </g>
    <clipPath id="clipPath10">
        <path d="M 218.666672 222.666687 L 240 222.666687 L 240 244 L 218.666672 244 Z M 218.666672 222.666687"/>
    </clipPath>
    <g id="g51" clip-path="url(#clipPath10)">
        <clipPath id="clipPath11">
            <path d="M 222.010422 257.052094 L 216 214.473969 L 264.515625 207.625 L 270.526031 250.203125 Z M 222.010422 257.052094"/>
        </clipPath>
        <g id="g52" clip-path="url(#clipPath11)">
            <clipPath id="clipPath12">
                <path d="M 222.010422 257.052094 L 216 214.473969 L 264.515625 207.625 L 270.526031 250.203125 Z M 222.010422 257.052094"/>
            </clipPath>
            <g id="g53" clip-path="url(#clipPath12)">
                <path id="path20" fill="#c38d14" stroke="none" d="M 232.401047 240.588562 L 234.416672 241.911469 L 236.3125 240.364594 L 235.416672 238.130219 C 235.895828 237.489594 236.286453 236.776062 236.557297 236 L 238.911453 235.510437 L 239.15625 233.072937 L 236.947922 232.130219 C 236.828125 231.317719 236.588547 230.541687 236.244797 229.817719 L 237.5625 227.807312 L 236.015625 225.911469 L 233.776047 226.807312 C 233.135422 226.333344 232.427078 225.953125 231.65625 225.677094 L 231.161453 223.3125 L 228.729172 223.067719 L 227.770828 225.296875 C 226.973953 225.416687 226.203125 225.65625 225.494797 225.994812 L 223.458328 224.661469 L 221.5625 226.208344 L 222.473953 228.473969 C 222.005203 229.104187 221.625 229.807312 221.354172 230.5625 L 218.963547 231.0625 L 218.71875 233.494812 L 220.963547 234.458344 C 221.083328 235.255219 221.3125 236.015625 221.651047 236.723969 L 220.3125 238.765625 L 221.859375 240.661469 L 224.119797 239.755219 C 224.75 240.229187 225.453125 240.609375 226.21875 240.885437 L 226.713547 243.260437 L 229.145828 243.505219 L 230.098953 241.28125 C 230.90625 241.166687 231.682297 240.932312 232.401047 240.588562 Z M 228.421875 238.614594 C 225.479172 238.322937 223.333328 235.697937 223.630203 232.755219 C 223.921875 229.8125 226.546875 227.666687 229.484375 227.958344 C 232.427078 228.255219 234.578125 230.875 234.28125 233.817719 C 233.989578 236.760437 231.364578 238.911469 228.421875 238.614594 Z M 228.421875 238.614594"/>
            </g>
        </g>
    </g>
    <clipPath id="clipPath13">
        <path d="M 230.666672 210.666687 L 248 210.666687 L 248 228 L 230.666672 228 Z M 230.666672 210.666687"/>
    </clipPath>
    <g id="g54" clip-path="url(#clipPath13)">
        <clipPath id="clipPath14">
            <path d="M 222.010422 257.052094 L 216 214.473969 L 264.515625 207.625 L 270.526031 250.203125 Z M 222.010422 257.052094"/>
        </clipPath>
        <g id="g55" clip-path="url(#clipPath14)">
            <clipPath id="clipPath15">
                <path d="M 222.010422 257.052094 L 216 214.473969 L 264.515625 207.625 L 270.526031 250.203125 Z M 222.010422 257.052094"/>
            </clipPath>
            <g id="g56" clip-path="url(#clipPath15)">
                <path id="path21" fill="#c38d14" stroke="none" d="M 237.3125 212.921875 C 236.708328 213.072937 236.119797 213.3125 235.572922 213.645844 L 233.848953 212.744812 L 232.473953 214.125 L 233.375 215.848969 C 233.041672 216.395844 232.802078 216.984375 232.651047 217.588562 L 230.796875 218.171875 L 230.802078 220.119812 L 232.645828 220.697937 C 232.796875 221.307312 233.036453 221.901062 233.369797 222.453125 L 232.479172 224.166687 L 233.854172 225.541687 L 235.5625 224.651062 C 236.114578 224.989594 236.713547 225.234375 237.328125 225.385437 L 237.901047 227.21875 L 239.848953 227.213562 L 240.421875 225.390625 C 241.041672 225.234375 241.640625 224.989594 242.197922 224.65625 L 243.895828 225.536469 L 245.270828 224.161469 L 244.385422 222.463562 C 244.723953 221.90625 244.96875 221.307312 245.119797 220.6875 L 246.947922 220.114594 L 246.947922 218.166687 L 245.114578 217.588562 C 244.963547 216.979187 244.71875 216.380219 244.380203 215.828125 L 245.270828 214.119812 L 243.890625 212.744812 L 242.182297 213.635437 C 241.625 213.307312 241.036453 213.067719 240.427078 212.916687 L 239.84375 211.067719 L 237.895828 211.067719 Z M 241.895828 216.140625 C 243.557297 217.802094 243.557297 220.5 241.895828 222.161469 C 240.234375 223.828125 237.536453 223.828125 235.869797 222.166687 C 234.208328 220.5 234.208328 217.807312 235.869797 216.140625 C 237.53125 214.479187 240.229172 214.473969 241.895828 216.140625 Z M 241.895828 216.140625"/>
            </g>
        </g>
    </g>
    <clipPath id="clipPath16">
        <path d="M 182.666672 261.333344 L 330.666656 261.333344 L 330.666656 308 L 182.666672 308 Z M 182.666672 261.333344"/>
    </clipPath>
    <g id="g57" clip-path="url(#clipPath16)">
        <clipPath id="clipPath17">
            <path d="M 167.135422 208.942719 L 314.104156 184.421875 L 330.5625 283.057297 L 183.59375 307.583344 Z M 167.135422 208.942719"/>
        </clipPath>
        <g id="g58" clip-path="url(#clipPath17)">
            <clipPath id="clipPath18">
                <path d="M 167.135422 208.942719 L 314.104156 184.421875 L 330.5625 283.057297 L 183.59375 307.583344 Z M 167.135422 208.942719"/>
            </clipPath>
            <g id="g59" clip-path="url(#clipPath18)">
                <clipPath id="clipPath19">
                    <path d="M 179.479172 282.932297 L 326.786469 258.354172 L 330.84375 282.65625 L 183.536453 307.234375 Z M 179.479172 282.932297"/>
                </clipPath>
                <g id="g60" clip-path="url(#clipPath19)">
                    <path id="path22" fill="#233667" stroke="none" d="M 277.411469 285.213562 L 234.90625 292.307312 C 234.614578 292.354187 234.375 292.078125 234.463547 291.796875 L 236.6875 284.953125 C 236.729172 284.8125 236.848953 284.708344 236.994797 284.682312 L 272.958344 278.682312 C 273.104156 278.661469 273.25 278.71875 273.338531 278.838562 L 277.661469 284.588562 C 277.838531 284.822937 277.703125 285.166687 277.411469 285.213562 Z M 328.989594 277.34375 L 308.453125 262.677094 C 307.75 262.177094 306.880219 261.973969 306.03125 262.114594 L 200.338547 279.75 C 199.484375 279.895844 198.729172 280.364594 198.223953 281.067719 L 183.5625 301.609375 C 183.0625 302.307312 182.859375 303.182312 183 304.03125 C 183.296875 305.802094 184.96875 306.994812 186.739578 306.703125 L 327.640625 283.192719 C 329.40625 282.895844 330.604156 281.223969 330.307281 279.453125 C 330.166656 278.604187 329.692719 277.84375 328.989594 277.34375"/>
                </g>
            </g>
        </g>
    </g>
    <clipPath id="clipPath20">
        <path d="M 186.666672 188 L 306.666656 188 L 306.666656 273.333344 L 186.666672 273.333344 Z M 186.666672 188"/>
    </clipPath>
    <g id="g61" clip-path="url(#clipPath20)">
        <clipPath id="clipPath21">
            <path d="M 167.135422 208.942719 L 314.104156 184.421875 L 330.5625 283.057297 L 183.59375 307.583344 Z M 167.135422 208.942719"/>
        </clipPath>
        <g id="g62" clip-path="url(#clipPath21)">
            <clipPath id="clipPath22">
                <path d="M 167.135422 208.942719 L 314.104156 184.421875 L 330.5625 283.057297 L 183.59375 307.583344 Z M 167.135422 208.942719"/>
            </clipPath>
            <g id="g63" clip-path="url(#clipPath22)">
                <path id="path23" fill="#233667" stroke="none" d="M 289.703125 188.53125 L 191.890625 204.854187 C 189.057297 205.322937 187.130203 208.026062 187.604172 210.854187 L 197.291672 268.927094 C 197.765625 271.755219 200.46875 273.6875 203.296875 273.213562 L 301.109375 256.895844 C 303.9375 256.421875 305.869781 253.71875 305.395844 250.890625 L 295.703125 192.817719 C 295.234375 189.989594 292.53125 188.057312 289.703125 188.53125 Z M 289.885406 194.619812 L 299.302094 251.072922 L 203.114578 267.125 L 193.692703 210.671875 L 289.885406 194.619812"/>
            </g>
        </g>
    </g>
</svg>
